# 3ds Max Wavefront OBJ Exporter v0.97b - (c)2007 guruware
# File Created: 01.04.2013 01:22:08

#mtllib C01B.mtl

#
# object C01B
#

v  -231.145355 -381.977448 269.761047
v  -254.853851 -381.977448 247.851410
v  -245.879120 -381.977448 238.139832
v  -222.170624 -381.977448 260.049469
v  -201.637634 292.265106 333.089600
v  -156.715103 292.265106 284.478760
v  -275.386749 292.265106 174.811188
v  -320.309265 292.265106 223.422012
# 8 vertices

vn -0.000000 -1.000000 0.000000
vn 0.000000 1.000000 -0.000000
vn 0.730736 -0.100029 0.675292
vn 0.678121 -0.041146 -0.733797
vn -0.730736 -0.100029 -0.675292
vn -0.678121 -0.041146 0.733797
# 6 vertex normals

vt 1.000000 0.000000 0.000000
vt 1.000000 1.000000 0.000000
vt 0.000000 1.000000 0.000000
vt 0.000000 0.000000 0.000000
# 4 texture coords

g C01B
usemtl 17___Default
s 2
f 1/1/1 2/2/1 3/3/1 
f 3/3/1 4/4/1 1/1/1 
s 4
f 5/4/2 6/1/2 7/2/2 
f 7/2/2 8/3/2 5/4/2 
s 8
f 1/4/3 4/1/3 6/2/3 
f 6/2/3 5/3/3 1/4/3 
s 16
f 4/4/4 3/1/4 7/2/4 
f 7/2/4 6/3/4 4/4/4 
s 32
f 3/4/5 2/1/5 8/2/5 
f 8/2/5 7/3/5 3/4/5 
s 64
f 2/4/6 1/1/6 5/2/6 
f 5/2/6 8/3/6 2/4/6 
# 12 faces

