# 3ds Max Wavefront OBJ Exporter v0.97b - (c)2007 guruware
# File Created: 01.04.2013 01:25:14

mtllib ../depends/models/F01.mtl

#
# object F01
#

v  -18.616261 -70.181366 212.607178
v  -14.472647 -70.901581 213.885468
v  -14.240250 -70.181366 213.022873
v  -14.987423 -71.572708 214.660950
v  -15.749499 -72.149025 215.296463
v  -16.706940 -72.591240 215.748718
v  -17.794498 -72.869232 215.986877
v  -18.938057 -72.964050 215.994705
v  -20.059687 -72.869232 215.771698
v  -21.082951 -72.591240 215.333023
v  -21.938112 -72.149025 214.708588
v  -22.566895 -71.572708 213.940933
v  -22.926449 -70.901581 213.082397
v  -22.992271 -70.181366 212.191483
v  -22.759876 -69.461151 211.328888
v  -22.245098 -68.790024 210.553406
v  -21.483025 -68.213707 209.917892
v  -20.525581 -67.771492 209.465637
v  -19.438025 -67.493500 209.227478
v  -18.294466 -67.398682 209.219650
v  -17.172836 -67.493500 209.442657
v  -16.149572 -67.771484 209.881332
v  -15.294411 -68.213707 210.505768
v  -14.665627 -68.790024 211.273407
v  -14.306072 -69.461151 212.131943
v  -5.189384 -79.860077 210.510681
v  -4.468623 -77.626396 207.835419
v  -6.785926 -81.941544 212.915771
v  -9.149448 -83.728935 214.886795
v  -12.118881 -85.100449 216.289398
v  -15.491861 -85.962624 217.028030
v  -19.038528 -86.256691 217.052338
v  -22.517179 -85.962616 216.360672
v  -25.690754 -85.100449 215.000153
v  -28.342976 -83.728935 213.063507
v  -30.293098 -81.941544 210.682724
v  -31.408232 -79.860077 208.020035
v  -31.612373 -77.626396 205.256912
v  -30.891613 -75.392708 202.581635
v  -29.295074 -73.311249 200.176544
v  -26.931553 -71.523849 198.205536
v  -23.962120 -70.152336 196.802917
v  -20.589138 -69.290161 196.064285
v  -17.042473 -68.996094 196.039978
v  -13.563821 -69.290161 196.731659
v  -10.390246 -70.152336 198.092163
v  -7.738025 -71.523849 200.028809
v  -5.787898 -73.311241 202.409592
v  -4.672766 -75.392700 205.072281
v  4.093878 -88.818581 207.135895
v  5.303003 -85.071426 202.647949
v  1.415571 -92.310379 211.170609
v  -2.549397 -95.308853 214.477112
v  -7.530823 -97.609657 216.830093
v  -13.189226 -99.056007 218.069183
v  -19.138998 -99.549332 218.109970
v  -24.974672 -99.056000 216.949646
v  -30.298557 -97.609657 214.667282
v  -34.747837 -95.308846 211.418442
v  -38.019306 -92.310379 207.424515
v  -39.890015 -88.818581 202.957672
v  -40.232475 -85.071419 198.322342
v  -39.023354 -81.324265 193.834396
v  -36.345047 -77.832466 189.799683
v  -32.380081 -74.833992 186.493179
v  -27.398655 -72.533180 184.140198
v  -21.740253 -71.086830 182.901093
v  -15.790481 -70.593506 182.860306
v  -9.954806 -71.086830 184.020645
v  -4.630920 -72.533180 186.302994
v  -0.181637 -74.833984 189.551834
v  3.089832 -77.832458 193.545761
v  4.960539 -81.324249 198.012604
v  13.377144 -97.777084 203.761108
v  15.074631 -92.516449 197.460480
v  9.617069 -102.679214 209.425430
v  4.050655 -106.888763 214.067429
v  -2.942765 -110.118866 217.370789
v  -10.886590 -112.149399 219.110352
v  -19.239470 -112.841965 219.167603
v  -27.432165 -112.149391 217.538605
v  -34.906357 -110.118866 214.334412
v  -41.152702 -106.888763 209.773361
v  -45.745510 -102.679207 204.166290
v  -48.371796 -97.777084 197.895309
v  -48.852577 -92.516449 191.387756
v  -47.155094 -87.255821 185.087143
v  -43.395023 -82.353691 179.422821
v  -37.828613 -78.144135 174.780823
v  -30.835192 -74.914032 171.477463
v  -22.891367 -72.883499 169.737885
v  -14.538488 -72.190926 169.680634
v  -6.345792 -72.883499 171.309631
v  1.128403 -74.914024 174.513824
v  7.374750 -78.144127 179.074860
v  11.967560 -82.353676 184.681946
v  14.593845 -87.255806 190.952927
v  22.660404 -106.735580 200.386322
v  24.846256 -99.961479 192.273026
v  17.818569 -113.048042 207.680252
v  10.650707 -118.468674 213.657761
v  1.645294 -122.628075 217.911469
v  -8.583954 -125.242775 220.151505
v  -19.339939 -126.134605 220.225220
v  -29.889658 -125.242775 218.127594
v  -39.514164 -122.628067 214.001556
v  -47.557564 -118.468674 208.128296
v  -53.471714 -113.048035 200.908081
v  -56.853577 -106.735580 192.832947
v  -57.472675 -99.961472 184.453186
v  -55.286831 -93.187370 176.339890
v  -50.445000 -86.874908 169.045959
v  -43.277142 -81.454277 163.068451
v  -34.271729 -77.294876 158.814728
v  -24.042480 -74.680168 156.574692
v  -13.286497 -73.788338 156.500977
v  -2.736777 -74.680168 158.598602
v  6.887730 -77.294868 162.724640
v  14.931137 -81.454262 168.597900
v  20.845287 -86.874893 175.818115
v  24.227150 -93.187355 183.893250
v  31.943668 -115.694084 197.011536
v  34.617886 -107.406509 187.085571
v  26.020065 -123.416878 205.935089
v  17.250755 -130.048584 213.248077
v  6.233353 -135.137283 218.452164
v  -6.281317 -138.336166 221.192673
v  -19.440409 -139.427246 221.282852
v  -32.347153 -138.336151 218.716568
v  -44.121971 -135.137268 213.668686
v  -53.962429 -130.048584 206.483231
v  -61.197922 -123.416870 197.649857
v  -65.335358 -115.694077 187.770569
v  -66.092781 -107.406502 177.518616
v  -63.418571 -99.118927 167.592651
v  -57.494976 -91.396133 158.669098
v  -48.725670 -84.764420 151.356094
v  -37.708267 -79.675720 146.152008
v  -25.193596 -76.476837 143.411499
v  -12.034504 -75.385757 143.321320
v  0.872238 -76.476837 145.887604
v  12.647057 -79.675713 150.935486
v  22.487522 -84.764404 158.120941
v  29.723019 -91.396111 166.954285
v  33.860462 -99.118904 176.833588
v  -15.737448 -107.406494 182.302078
# 146 vertices

vn -0.059866 0.774114 0.630209
vn 0.676517 0.536234 0.504755
vn 0.638387 0.418066 0.646283
vn 0.553926 0.307952 0.773519
vn 0.428890 0.213394 0.877791
vn 0.271799 0.140837 0.951993
vn 0.093360 0.095226 0.991068
vn -0.094268 0.079669 0.992354
vn -0.278298 0.095226 0.955763
vn -0.446188 0.140837 0.883788
vn -0.586497 0.213394 0.781335
vn -0.689664 0.307952 0.655385
vn -0.748657 0.418066 0.514522
vn -0.759457 0.536234 0.368345
vn -0.721327 0.654402 0.226817
vn -0.636866 0.764517 0.099581
vn -0.511829 0.859074 -0.004691
vn -0.354739 0.931631 -0.078893
vn -0.176299 0.977242 -0.117968
vn 0.011328 0.992799 -0.119254
vn 0.195358 0.977242 -0.082663
vn 0.363248 0.931631 -0.010688
vn 0.503558 0.859075 0.091765
vn 0.606724 0.764517 0.217715
vn 0.665718 0.654402 0.358578
vn 0.665717 0.654402 0.358578
vn 0.059866 -0.774114 -0.630209
# 27 vertex normals

vt 0.500000 0.000000 0.000000
vt 0.791667 0.000000 0.086903
vt 0.750000 0.000000 0.086903
vt 0.833333 0.000000 0.086903
vt 0.875000 0.000000 0.086903
vt 0.916667 0.000000 0.086903
vt 0.958333 0.000000 0.086903
vt 1.000000 0.000000 0.086903
vt 0.041667 0.000000 0.086903
vt -0.000000 0.000000 0.086903
vt 0.083333 0.000000 0.086903
vt 0.125000 0.000000 0.086903
vt 0.166667 0.000000 0.086903
vt 0.208333 0.000000 0.086903
vt 0.250000 0.000000 0.086903
vt 0.291667 0.000000 0.086903
vt 0.333333 0.000000 0.086903
vt 0.375000 0.000000 0.086903
vt 0.416667 0.000000 0.086903
vt 0.458333 0.000000 0.086903
vt 0.500000 0.000000 0.086903
vt 0.541667 0.000000 0.086903
vt 0.583333 0.000000 0.086903
vt 0.625000 0.000000 0.086903
vt 0.666667 0.000000 0.086903
vt 0.708333 0.000000 0.086903
vt 0.791667 0.200000 0.269522
vt 0.750000 0.200000 0.269522
vt 0.833333 0.200000 0.269522
vt 0.875000 0.200000 0.269522
vt 0.916667 0.200000 0.269522
vt 0.958333 0.200000 0.269522
vt 1.000000 0.200000 0.269522
vt 0.041667 0.200000 0.269522
vt -0.000000 0.200000 0.269522
vt 0.083333 0.200000 0.269522
vt 0.125000 0.200000 0.269522
vt 0.166667 0.200000 0.269522
vt 0.208333 0.200000 0.269522
vt 0.250000 0.200000 0.269522
vt 0.291667 0.200000 0.269522
vt 0.333333 0.200000 0.269522
vt 0.375000 0.200000 0.269522
vt 0.416667 0.200000 0.269522
vt 0.458333 0.200000 0.269522
vt 0.500000 0.200000 0.269522
vt 0.541667 0.200000 0.269522
vt 0.583333 0.200000 0.269522
vt 0.625000 0.200000 0.269522
vt 0.666667 0.200000 0.269522
vt 0.708333 0.200000 0.269522
vt 0.791667 0.400000 0.452142
vt 0.750000 0.400000 0.452142
vt 0.833333 0.400000 0.452142
vt 0.875000 0.400000 0.452142
vt 0.916667 0.400000 0.452142
vt 0.958333 0.400000 0.452142
vt 1.000000 0.400000 0.452142
vt 0.041667 0.400000 0.452142
vt -0.000000 0.400000 0.452142
vt 0.083333 0.400000 0.452142
vt 0.125000 0.400000 0.452142
vt 0.166667 0.400000 0.452142
vt 0.208333 0.400000 0.452142
vt 0.250000 0.400000 0.452142
vt 0.291667 0.400000 0.452142
vt 0.333333 0.400000 0.452142
vt 0.375000 0.400000 0.452142
vt 0.416667 0.400000 0.452142
vt 0.458333 0.400000 0.452142
vt 0.500000 0.400000 0.452142
vt 0.541667 0.400000 0.452142
vt 0.583333 0.400000 0.452142
vt 0.625000 0.400000 0.452142
vt 0.666667 0.400000 0.452142
vt 0.708333 0.400000 0.452142
vt 0.791667 0.600000 0.634761
vt 0.750000 0.600000 0.634761
vt 0.833333 0.600000 0.634761
vt 0.875000 0.600000 0.634761
vt 0.916667 0.600000 0.634761
vt 0.958333 0.600000 0.634761
vt 1.000000 0.600000 0.634761
vt 0.041667 0.600000 0.634761
vt -0.000000 0.600000 0.634761
vt 0.083333 0.600000 0.634761
vt 0.125000 0.600000 0.634761
vt 0.166667 0.600000 0.634761
vt 0.208333 0.600000 0.634761
vt 0.250000 0.600000 0.634761
vt 0.291667 0.600000 0.634761
vt 0.333333 0.600000 0.634761
vt 0.375000 0.600000 0.634761
vt 0.416667 0.600000 0.634761
vt 0.458333 0.600000 0.634761
vt 0.500000 0.600000 0.634761
vt 0.541667 0.600000 0.634761
vt 0.583333 0.600000 0.634761
vt 0.625000 0.600000 0.634761
vt 0.666667 0.600000 0.634761
vt 0.708333 0.600000 0.634761
vt 0.791667 0.800000 0.817380
vt 0.750000 0.800000 0.817381
vt 0.833333 0.800000 0.817381
vt 0.875000 0.800000 0.817381
vt 0.916667 0.800000 0.817381
vt 0.958333 0.800000 0.817380
vt 1.000000 0.800000 0.817381
vt 0.041667 0.800000 0.817381
vt -0.000000 0.800000 0.817381
vt 0.083333 0.800000 0.817381
vt 0.125000 0.800000 0.817380
vt 0.166667 0.800000 0.817381
vt 0.208333 0.800000 0.817380
vt 0.250000 0.800000 0.817381
vt 0.291667 0.800000 0.817381
vt 0.333333 0.800000 0.817381
vt 0.375000 0.800000 0.817381
vt 0.416667 0.800000 0.817381
vt 0.458333 0.800000 0.817380
vt 0.500000 0.800000 0.817381
vt 0.541667 0.800000 0.817381
vt 0.583333 0.800000 0.817381
vt 0.625000 0.800000 0.817381
vt 0.666667 0.800000 0.817381
vt 0.708333 0.800000 0.817380
vt 0.791667 1.000000 1.000000
vt 0.750000 1.000000 1.000000
vt 0.833333 1.000000 1.000000
vt 0.875000 1.000000 1.000000
vt 0.916667 1.000000 1.000000
vt 0.958333 1.000000 1.000000
vt 1.000000 1.000000 1.000000
vt 0.041667 1.000000 1.000000
vt -0.000000 1.000000 1.000000
vt 0.083333 1.000000 1.000000
vt 0.125000 1.000000 1.000000
vt 0.166667 1.000000 1.000000
vt 0.208333 1.000000 1.000000
vt 0.250000 1.000000 1.000000
vt 0.291667 1.000000 1.000000
vt 0.333333 1.000000 1.000000
vt 0.375000 1.000000 1.000000
vt 0.416667 1.000000 1.000000
vt 0.458333 1.000000 1.000000
vt 0.500000 1.000000 1.000000
vt 0.541667 1.000000 1.000000
vt 0.583333 1.000000 1.000000
vt 0.625000 1.000000 1.000000
vt 0.666667 1.000000 1.000000
vt 0.708333 1.000000 1.000000
vt 0.500000 1.000000 0.000000
# 152 texture coords

g F01
usemtl 17___Default
s 1
f 1/1/1 2/2/1 3/3/1 
f 1/1/1 4/4/1 2/2/1 
f 1/1/1 5/5/1 4/4/1 
f 1/1/1 6/6/1 5/5/1 
f 1/1/1 7/7/1 6/6/1 
f 1/1/1 8/8/1 7/7/1 
f 1/1/1 9/9/1 8/10/1 
f 1/1/1 10/11/1 9/9/1 
f 1/1/1 11/12/1 10/11/1 
f 1/1/1 12/13/1 11/12/1 
f 1/1/1 13/14/1 12/13/1 
f 1/1/1 14/15/1 13/14/1 
f 1/1/1 15/16/1 14/15/1 
f 1/1/1 16/17/1 15/16/1 
f 1/1/1 17/18/1 16/17/1 
f 1/1/1 18/19/1 17/18/1 
f 1/1/1 19/20/1 18/19/1 
f 1/1/1 20/21/1 19/20/1 
f 1/1/1 21/22/1 20/21/1 
f 1/1/1 22/23/1 21/22/1 
f 1/1/1 23/24/1 22/23/1 
f 1/1/1 24/25/1 23/24/1 
f 1/1/1 25/26/1 24/25/1 
f 1/1/1 3/3/1 25/26/1 
s 8
f 3/3/2 26/27/3 27/28/2 
f 3/3/2 2/2/3 26/27/3 
f 2/2/3 28/29/4 26/27/3 
f 2/2/3 4/4/4 28/29/4 
f 4/4/4 29/30/5 28/29/4 
f 4/4/4 5/5/5 29/30/5 
f 5/5/5 30/31/6 29/30/5 
f 5/5/5 6/6/6 30/31/6 
f 6/6/6 31/32/7 30/31/6 
f 6/6/6 7/7/7 31/32/7 
f 7/7/7 32/33/8 31/32/7 
f 7/7/7 8/8/8 32/33/8 
f 8/10/8 33/34/9 32/35/8 
f 8/10/8 9/9/9 33/34/9 
f 9/9/9 34/36/10 33/34/9 
f 9/9/9 10/11/10 34/36/10 
f 10/11/10 35/37/11 34/36/10 
f 10/11/10 11/12/11 35/37/11 
f 11/12/11 36/38/12 35/37/11 
f 11/12/11 12/13/12 36/38/12 
f 12/13/12 37/39/13 36/38/12 
f 12/13/12 13/14/13 37/39/13 
f 13/14/13 38/40/14 37/39/13 
f 13/14/13 14/15/14 38/40/14 
f 14/15/14 39/41/15 38/40/14 
f 14/15/14 15/16/15 39/41/15 
f 15/16/15 40/42/16 39/41/15 
f 15/16/15 16/17/16 40/42/16 
f 16/17/16 41/43/17 40/42/16 
f 16/17/16 17/18/17 41/43/17 
f 17/18/17 42/44/18 41/43/17 
f 17/18/17 18/19/18 42/44/18 
f 18/19/18 43/45/19 42/44/18 
f 18/19/18 19/20/19 43/45/19 
f 19/20/19 44/46/20 43/45/19 
f 19/20/19 20/21/20 44/46/20 
f 20/21/20 45/47/21 44/46/20 
f 20/21/20 21/22/21 45/47/21 
f 21/22/21 46/48/22 45/47/21 
f 21/22/21 22/23/22 46/48/22 
f 22/23/22 47/49/23 46/48/22 
f 22/23/22 23/24/23 47/49/23 
f 23/24/23 48/50/24 47/49/23 
f 23/24/23 24/25/24 48/50/24 
f 24/25/24 49/51/25 48/50/24 
f 24/25/24 25/26/25 49/51/25 
f 25/26/25 27/28/2 49/51/25 
f 25/26/25 3/3/2 27/28/2 
f 27/28/2 50/52/3 51/53/2 
f 27/28/2 26/27/3 50/52/3 
f 26/27/3 52/54/4 50/52/3 
f 26/27/3 28/29/4 52/54/4 
f 28/29/4 53/55/5 52/54/4 
f 28/29/4 29/30/5 53/55/5 
f 29/30/5 54/56/6 53/55/5 
f 29/30/5 30/31/6 54/56/6 
f 30/31/6 55/57/7 54/56/6 
f 30/31/6 31/32/7 55/57/7 
f 31/32/7 56/58/8 55/57/7 
f 31/32/7 32/33/8 56/58/8 
f 32/35/8 57/59/9 56/60/8 
f 32/35/8 33/34/9 57/59/9 
f 33/34/9 58/61/10 57/59/9 
f 33/34/9 34/36/10 58/61/10 
f 34/36/10 59/62/11 58/61/10 
f 34/36/10 35/37/11 59/62/11 
f 35/37/11 60/63/12 59/62/11 
f 35/37/11 36/38/12 60/63/12 
f 36/38/12 61/64/13 60/63/12 
f 36/38/12 37/39/13 61/64/13 
f 37/39/13 62/65/14 61/64/13 
f 37/39/13 38/40/14 62/65/14 
f 38/40/14 63/66/15 62/65/14 
f 38/40/14 39/41/15 63/66/15 
f 39/41/15 64/67/16 63/66/15 
f 39/41/15 40/42/16 64/67/16 
f 40/42/16 65/68/17 64/67/16 
f 40/42/16 41/43/17 65/68/17 
f 41/43/17 66/69/18 65/68/17 
f 41/43/17 42/44/18 66/69/18 
f 42/44/18 67/70/19 66/69/18 
f 42/44/18 43/45/19 67/70/19 
f 43/45/19 68/71/20 67/70/19 
f 43/45/19 44/46/20 68/71/20 
f 44/46/20 69/72/21 68/71/20 
f 44/46/20 45/47/21 69/72/21 
f 45/47/21 70/73/22 69/72/21 
f 45/47/21 46/48/22 70/73/22 
f 46/48/22 71/74/23 70/73/22 
f 46/48/22 47/49/23 71/74/23 
f 47/49/23 72/75/24 71/74/23 
f 47/49/23 48/50/24 72/75/24 
f 48/50/24 73/76/25 72/75/24 
f 48/50/24 49/51/25 73/76/25 
f 49/51/25 51/53/2 73/76/25 
f 49/51/25 27/28/2 51/53/2 
f 51/53/2 74/77/3 75/78/2 
f 51/53/2 50/52/3 74/77/3 
f 50/52/3 76/79/4 74/77/3 
f 50/52/3 52/54/4 76/79/4 
f 52/54/4 77/80/5 76/79/4 
f 52/54/4 53/55/5 77/80/5 
f 53/55/5 78/81/6 77/80/5 
f 53/55/5 54/56/6 78/81/6 
f 54/56/6 79/82/7 78/81/6 
f 54/56/6 55/57/7 79/82/7 
f 55/57/7 80/83/8 79/82/7 
f 55/57/7 56/58/8 80/83/8 
f 56/60/8 81/84/9 80/85/8 
f 56/60/8 57/59/9 81/84/9 
f 57/59/9 82/86/10 81/84/9 
f 57/59/9 58/61/10 82/86/10 
f 58/61/10 83/87/11 82/86/10 
f 58/61/10 59/62/11 83/87/11 
f 59/62/11 84/88/12 83/87/11 
f 59/62/11 60/63/12 84/88/12 
f 60/63/12 85/89/13 84/88/12 
f 60/63/12 61/64/13 85/89/13 
f 61/64/13 86/90/14 85/89/13 
f 61/64/13 62/65/14 86/90/14 
f 62/65/14 87/91/15 86/90/14 
f 62/65/14 63/66/15 87/91/15 
f 63/66/15 88/92/16 87/91/15 
f 63/66/15 64/67/16 88/92/16 
f 64/67/16 89/93/17 88/92/16 
f 64/67/16 65/68/17 89/93/17 
f 65/68/17 90/94/18 89/93/17 
f 65/68/17 66/69/18 90/94/18 
f 66/69/18 91/95/19 90/94/18 
f 66/69/18 67/70/19 91/95/19 
f 67/70/19 92/96/20 91/95/19 
f 67/70/19 68/71/20 92/96/20 
f 68/71/20 93/97/21 92/96/20 
f 68/71/20 69/72/21 93/97/21 
f 69/72/21 94/98/22 93/97/21 
f 69/72/21 70/73/22 94/98/22 
f 70/73/22 95/99/23 94/98/22 
f 70/73/22 71/74/23 95/99/23 
f 71/74/23 96/100/24 95/99/23 
f 71/74/23 72/75/24 96/100/24 
f 72/75/24 97/101/25 96/100/24 
f 72/75/24 73/76/25 97/101/25 
f 73/76/25 75/78/2 97/101/25 
f 73/76/25 51/53/2 75/78/2 
f 75/78/2 98/102/3 99/103/2 
f 75/78/2 74/77/3 98/102/3 
f 74/77/3 100/104/4 98/102/3 
f 74/77/3 76/79/4 100/104/4 
f 76/79/4 101/105/5 100/104/4 
f 76/79/4 77/80/5 101/105/5 
f 77/80/5 102/106/6 101/105/5 
f 77/80/5 78/81/6 102/106/6 
f 78/81/6 103/107/7 102/106/6 
f 78/81/6 79/82/7 103/107/7 
f 79/82/7 104/108/8 103/107/7 
f 79/82/7 80/83/8 104/108/8 
f 80/85/8 105/109/9 104/110/8 
f 80/85/8 81/84/9 105/109/9 
f 81/84/9 106/111/10 105/109/9 
f 81/84/9 82/86/10 106/111/10 
f 82/86/10 107/112/11 106/111/10 
f 82/86/10 83/87/11 107/112/11 
f 83/87/11 108/113/12 107/112/11 
f 83/87/11 84/88/12 108/113/12 
f 84/88/12 109/114/13 108/113/12 
f 84/88/12 85/89/13 109/114/13 
f 85/89/13 110/115/14 109/114/13 
f 85/89/13 86/90/14 110/115/14 
f 86/90/14 111/116/15 110/115/14 
f 86/90/14 87/91/15 111/116/15 
f 87/91/15 112/117/16 111/116/15 
f 87/91/15 88/92/16 112/117/16 
f 88/92/16 113/118/17 112/117/16 
f 88/92/16 89/93/17 113/118/17 
f 89/93/17 114/119/18 113/118/17 
f 89/93/17 90/94/18 114/119/18 
f 90/94/18 115/120/19 114/119/18 
f 90/94/18 91/95/19 115/120/19 
f 91/95/19 116/121/20 115/120/19 
f 91/95/19 92/96/20 116/121/20 
f 92/96/20 117/122/21 116/121/20 
f 92/96/20 93/97/21 117/122/21 
f 93/97/21 118/123/22 117/122/21 
f 93/97/21 94/98/22 118/123/22 
f 94/98/22 119/124/23 118/123/22 
f 94/98/22 95/99/23 119/124/23 
f 95/99/23 120/125/24 119/124/23 
f 95/99/23 96/100/24 120/125/24 
f 96/100/24 121/126/26 120/125/24 
f 96/100/24 97/101/25 121/126/26 
f 97/101/25 99/103/2 121/126/26 
f 97/101/25 75/78/2 99/103/2 
f 99/103/2 122/127/3 123/128/2 
f 99/103/2 98/102/3 122/127/3 
f 98/102/3 124/129/4 122/127/3 
f 98/102/3 100/104/4 124/129/4 
f 100/104/4 125/130/5 124/129/4 
f 100/104/4 101/105/5 125/130/5 
f 101/105/5 126/131/6 125/130/5 
f 101/105/5 102/106/6 126/131/6 
f 102/106/6 127/132/7 126/131/6 
f 102/106/6 103/107/7 127/132/7 
f 103/107/7 128/133/8 127/132/7 
f 103/107/7 104/108/8 128/133/8 
f 104/110/8 129/134/9 128/135/8 
f 104/110/8 105/109/9 129/134/9 
f 105/109/9 130/136/10 129/134/9 
f 105/109/9 106/111/10 130/136/10 
f 106/111/10 131/137/11 130/136/10 
f 106/111/10 107/112/11 131/137/11 
f 107/112/11 132/138/12 131/137/11 
f 107/112/11 108/113/12 132/138/12 
f 108/113/12 133/139/13 132/138/12 
f 108/113/12 109/114/13 133/139/13 
f 109/114/13 134/140/14 133/139/13 
f 109/114/13 110/115/14 134/140/14 
f 110/115/14 135/141/15 134/140/14 
f 110/115/14 111/116/15 135/141/15 
f 111/116/15 136/142/16 135/141/15 
f 111/116/15 112/117/16 136/142/16 
f 112/117/16 137/143/17 136/142/16 
f 112/117/16 113/118/17 137/143/17 
f 113/118/17 138/144/18 137/143/17 
f 113/118/17 114/119/18 138/144/18 
f 114/119/18 139/145/19 138/144/18 
f 114/119/18 115/120/19 139/145/19 
f 115/120/19 140/146/20 139/145/19 
f 115/120/19 116/121/20 140/146/20 
f 116/121/20 141/147/21 140/146/20 
f 116/121/20 117/122/21 141/147/21 
f 117/122/21 142/148/22 141/147/21 
f 117/122/21 118/123/22 142/148/22 
f 118/123/22 143/149/23 142/148/22 
f 118/123/22 119/124/23 143/149/23 
f 119/124/23 144/150/24 143/149/23 
f 119/124/23 120/125/24 144/150/24 
f 120/125/24 145/151/26 144/150/24 
f 120/125/24 121/126/26 145/151/26 
f 121/126/26 123/128/2 145/151/26 
f 121/126/26 99/103/2 123/128/2 
s 1
f 146/152/27 123/128/27 122/127/27 
f 146/152/27 122/127/27 124/129/27 
f 146/152/27 124/129/27 125/130/27 
f 146/152/27 125/130/27 126/131/27 
f 146/152/27 126/131/27 127/132/27 
f 146/152/27 127/132/27 128/133/27 
f 146/152/27 128/135/27 129/134/27 
f 146/152/27 129/134/27 130/136/27 
f 146/152/27 130/136/27 131/137/27 
f 146/152/27 131/137/27 132/138/27 
f 146/152/27 132/138/27 133/139/27 
f 146/152/27 133/139/27 134/140/27 
f 146/152/27 134/140/27 135/141/27 
f 146/152/27 135/141/27 136/142/27 
f 146/152/27 136/142/27 137/143/27 
f 146/152/27 137/143/27 138/144/27 
f 146/152/27 138/144/27 139/145/27 
f 146/152/27 139/145/27 140/146/27 
f 146/152/27 140/146/27 141/147/27 
f 146/152/27 141/147/27 142/148/27 
f 146/152/27 142/148/27 143/149/27 
f 146/152/27 143/149/27 144/150/27 
f 146/152/27 144/150/27 145/151/27 
f 146/152/27 145/151/27 123/128/27 
# 288 faces

