#  ==========================================================================
#  
#  Wavefront OBJ format exported by Red-i Productions' "Riptide Pro"
#     (a commercial plugin for Cinema 4D PC & Mac, R9.6 or later)
#  
#  Red-i Productions
#  http://skinprops.com
#  
#  ==========================================================================
mtllib ../depends/models/F01.mtl
o F01
v -18.6163 -70.1814 212.607
v -14.4726 -70.9016 213.885
v -14.2402 -70.1814 213.023
v -14.9874 -71.5727 214.661
v -15.7495 -72.149 215.296
v -16.7069 -72.5912 215.749
v -17.7945 -72.8692 215.987
v -18.9381 -72.9641 215.995
v -20.0597 -72.8692 215.772
v -21.083 -72.5912 215.333
v -21.9381 -72.149 214.709
v -22.5669 -71.5727 213.941
v -22.9264 -70.9016 213.082
v -22.9923 -70.1814 212.191
v -22.7599 -69.4612 211.329
v -22.2451 -68.79 210.553
v -21.483 -68.2137 209.918
v -20.5256 -67.7715 209.466
v -19.438 -67.4935 209.227
v -18.2945 -67.3987 209.22
v -17.1728 -67.4935 209.443
v -16.1496 -67.7715 209.881
v -15.2944 -68.2137 210.506
v -14.6656 -68.79 211.273
v -14.3061 -69.4612 212.132
v -5.18938 -79.8601 210.511
v -4.46862 -77.6264 207.835
v -6.78593 -81.9415 212.916
v -9.14945 -83.7289 214.887
v -12.1189 -85.1004 216.289
v -15.4919 -85.9626 217.028
v -19.0385 -86.2567 217.052
v -22.5172 -85.9626 216.361
v -25.6908 -85.1004 215
v -28.343 -83.7289 213.064
v -30.2931 -81.9415 210.683
v -31.4082 -79.8601 208.02
v -31.6124 -77.6264 205.257
v -30.8916 -75.3927 202.582
v -29.2951 -73.3112 200.177
v -26.9316 -71.5238 198.206
v -23.9621 -70.1523 196.803
v -20.5891 -69.2902 196.064
v -17.0425 -68.9961 196.04
v -13.5638 -69.2902 196.732
v -10.3902 -70.1523 198.092
v -7.73803 -71.5238 200.029
v -5.7879 -73.3112 202.41
v -4.67277 -75.3927 205.072
v 4.09388 -88.8186 207.136
v 5.303 -85.0714 202.648
v 1.41557 -92.3104 211.171
v -2.5494 -95.3089 214.477
v -7.53082 -97.6097 216.83
v -13.1892 -99.056 218.069
v -19.139 -99.5493 218.11
v -24.9747 -99.056 216.95
v -30.2986 -97.6097 214.667
v -34.7478 -95.3088 211.418
v -38.0193 -92.3104 207.425
v -39.89 -88.8186 202.958
v -40.2325 -85.0714 198.322
v -39.0234 -81.3243 193.834
v -36.345 -77.8325 189.8
v -32.3801 -74.834 186.493
v -27.3987 -72.5332 184.14
v -21.7403 -71.0868 182.901
v -15.7905 -70.5935 182.86
v -9.95481 -71.0868 184.021
v -4.63092 -72.5332 186.303
v -0.181637 -74.834 189.552
v 3.08983 -77.8325 193.546
v 4.96054 -81.3242 198.013
v 13.3771 -97.7771 203.761
v 15.0746 -92.5164 197.46
v 9.61707 -102.679 209.425
v 4.05065 -106.889 214.067
v -2.94277 -110.119 217.371
v -10.8866 -112.149 219.11
v -19.2395 -112.842 219.168
v -27.4322 -112.149 217.539
v -34.9064 -110.119 214.334
v -41.1527 -106.889 209.773
v -45.7455 -102.679 204.166
v -48.3718 -97.7771 197.895
v -48.8526 -92.5164 191.388
v -47.1551 -87.2558 185.087
v -43.395 -82.3537 179.423
v -37.8286 -78.1441 174.781
v -30.8352 -74.914 171.477
v -22.8914 -72.8835 169.738
v -14.5385 -72.1909 169.681
v -6.34579 -72.8835 171.31
v 1.1284 -74.914 174.514
v 7.37475 -78.1441 179.075
v 11.9676 -82.3537 184.682
v 14.5938 -87.2558 190.953
v 22.6604 -106.736 200.386
v 24.8463 -99.9615 192.273
v 17.8186 -113.048 207.68
v 10.6507 -118.469 213.658
v 1.64529 -122.628 217.911
v -8.58395 -125.243 220.152
v -19.3399 -126.135 220.225
v -29.8897 -125.243 218.128
v -39.5142 -122.628 214.002
v -47.5576 -118.469 208.128
v -53.4717 -113.048 200.908
v -56.8536 -106.736 192.833
v -57.4727 -99.9615 184.453
v -55.2868 -93.1874 176.34
v -50.445 -86.8749 169.046
v -43.2771 -81.4543 163.068
v -34.2717 -77.2949 158.815
v -24.0425 -74.6802 156.575
v -13.2865 -73.7883 156.501
v -2.73678 -74.6802 158.599
v 6.88773 -77.2949 162.725
v 14.9311 -81.4543 168.598
v 20.8453 -86.8749 175.818
v 24.2272 -93.1874 183.893
v 31.9437 -115.694 197.012
v 34.6179 -107.407 187.086
v 26.0201 -123.417 205.935
v 17.2508 -130.049 213.248
v 6.23335 -135.137 218.452
v -6.28132 -138.336 221.193
v -19.4404 -139.427 221.283
v -32.3472 -138.336 218.717
v -44.122 -135.137 213.669
v -53.9624 -130.049 206.483
v -61.1979 -123.417 197.65
v -65.3354 -115.694 187.771
v -66.0928 -107.407 177.519
v -63.4186 -99.1189 167.593
v -57.495 -91.3961 158.669
v -48.7257 -84.7644 151.356
v -37.7083 -79.6757 146.152
v -25.1936 -76.4768 143.411
v -12.0345 -75.3858 143.321
v 0.872238 -76.4768 145.888
v 12.6471 -79.6757 150.935
v 22.4875 -84.7644 158.121
v 29.723 -91.3961 166.954
v 33.8605 -99.1189 176.834
v 31.9437 -115.694 197.012
v 34.6179 -107.407 187.086
v -15.7374 -107.406 182.302
v 26.0201 -123.417 205.935
v 31.9437 -115.694 197.012
v -15.7374 -107.406 182.302
v 17.2508 -130.049 213.248
v 26.0201 -123.417 205.935
v -15.7374 -107.406 182.302
v 6.23335 -135.137 218.452
v 17.2508 -130.049 213.248
v -15.7374 -107.406 182.302
v -6.28132 -138.336 221.193
v 6.23335 -135.137 218.452
v -15.7374 -107.406 182.302
v -19.4404 -139.427 221.283
v -6.28132 -138.336 221.193
v -15.7374 -107.406 182.302
v -32.3472 -138.336 218.717
v -19.4404 -139.427 221.283
v -15.7374 -107.406 182.302
v -44.122 -135.137 213.669
v -32.3472 -138.336 218.717
v -15.7374 -107.406 182.302
v -53.9624 -130.049 206.483
v -44.122 -135.137 213.669
v -15.7374 -107.406 182.302
v -61.1979 -123.417 197.65
v -53.9624 -130.049 206.483
v -15.7374 -107.406 182.302
v -65.3354 -115.694 187.771
v -61.1979 -123.417 197.65
v -15.7374 -107.406 182.302
v -66.0928 -107.407 177.519
v -65.3354 -115.694 187.771
v -15.7374 -107.406 182.302
v -63.4186 -99.1189 167.593
v -66.0928 -107.407 177.519
v -15.7374 -107.406 182.302
v -57.495 -91.3961 158.669
v -63.4186 -99.1189 167.593
v -15.7374 -107.406 182.302
v -48.7257 -84.7644 151.356
v -57.495 -91.3961 158.669
v -15.7374 -107.406 182.302
v -37.7083 -79.6757 146.152
v -48.7257 -84.7644 151.356
v -15.7374 -107.406 182.302
v -25.1936 -76.4768 143.411
v -37.7083 -79.6757 146.152
v -15.7374 -107.406 182.302
v -12.0345 -75.3858 143.321
v -25.1936 -76.4768 143.411
v -15.7374 -107.406 182.302
v 0.872238 -76.4768 145.888
v -12.0345 -75.3858 143.321
v -15.7374 -107.406 182.302
v 12.6471 -79.6757 150.935
v 0.872238 -76.4768 145.888
v -15.7374 -107.406 182.302
v 22.4875 -84.7644 158.121
v 12.6471 -79.6757 150.935
v -15.7374 -107.406 182.302
v 29.723 -91.3961 166.954
v 22.4875 -84.7644 158.121
v -15.7374 -107.406 182.302
v 33.8605 -99.1189 176.834
v 29.723 -91.3961 166.954
v -15.7374 -107.406 182.302
v 34.6179 -107.407 187.086
v 33.8605 -99.1189 176.834
v -15.7374 -107.406 182.302
# 217 vertices

vt 0.75000 0.00003
vt 0.79166 0.00003
vt 0.50000 0.00003
vt 0.83333 0.00003
vt 0.87500 0.00003
vt 0.91666 0.00003
vt 0.95833 0.00003
vt 1.00000 0.00003
vt -0.00003 0.00003
vt 0.04167 0.00003
vt 0.08333 0.00003
vt 0.12500 0.00003
vt 0.16666 0.00003
vt 0.20833 0.00003
vt 0.25000 0.00003
vt 0.29166 0.00003
vt 0.33333 0.00003
vt 0.37500 0.00003
vt 0.41666 0.00003
vt 0.45833 0.00003
vt 0.54166 0.00003
vt 0.58333 0.00003
vt 0.62500 0.00003
vt 0.66666 0.00003
vt 0.70833 0.00003
vt 0.75000 0.20004
vt 0.79166 0.20004
vt 0.83333 0.20004
vt 0.87500 0.20004
vt 0.91666 0.20004
vt 0.95833 0.20004
vt 1.00000 0.20004
vt -0.00003 0.20004
vt 0.04167 0.20004
vt 0.08333 0.20004
vt 0.12500 0.20004
vt 0.16666 0.20004
vt 0.20833 0.20004
vt 0.25000 0.20004
vt 0.29166 0.20004
vt 0.33333 0.20004
vt 0.37500 0.20004
vt 0.41666 0.20004
vt 0.45833 0.20004
vt 0.50000 0.20004
vt 0.54166 0.20004
vt 0.58333 0.20004
vt 0.62500 0.20004
vt 0.66666 0.20004
vt 0.70833 0.20004
vt 0.75000 0.40004
vt 0.79166 0.40004
vt 0.83333 0.40004
vt 0.87500 0.40004
vt 0.91666 0.40004
vt 0.95833 0.40004
vt 1.00000 0.40004
vt -0.00003 0.40004
vt 0.04167 0.40004
vt 0.08333 0.40004
vt 0.12500 0.40004
vt 0.16666 0.40004
vt 0.20833 0.40004
vt 0.25000 0.40004
vt 0.29166 0.40004
vt 0.33333 0.40004
vt 0.37500 0.40004
vt 0.41666 0.40004
vt 0.45833 0.40004
vt 0.50000 0.40004
vt 0.54166 0.40004
vt 0.58333 0.40004
vt 0.62500 0.40004
vt 0.66666 0.40004
vt 0.70833 0.40004
vt 0.75000 0.60004
vt 0.79166 0.60004
vt 0.83333 0.60004
vt 0.87500 0.60004
vt 0.91666 0.60004
vt 0.95833 0.60004
vt 1.00000 0.60004
vt -0.00003 0.60004
vt 0.04167 0.60004
vt 0.08333 0.60004
vt 0.12500 0.60004
vt 0.16666 0.60004
vt 0.20833 0.60004
vt 0.25000 0.60004
vt 0.29166 0.60004
vt 0.33333 0.60004
vt 0.37500 0.60004
vt 0.41666 0.60004
vt 0.45833 0.60004
vt 0.50000 0.60004
vt 0.54166 0.60004
vt 0.58333 0.60004
vt 0.62500 0.60004
vt 0.66666 0.60004
vt 0.70833 0.60004
vt 0.75000 0.80003
vt 0.79166 0.80003
vt 0.83333 0.80003
vt 0.87500 0.80003
vt 0.91666 0.80003
vt 0.95833 0.80003
vt 1.00000 0.80003
vt -0.00003 0.80003
vt 0.04167 0.80003
vt 0.08333 0.80003
vt 0.12500 0.80003
vt 0.16666 0.80003
vt 0.20833 0.80003
vt 0.25000 0.80003
vt 0.29166 0.80003
vt 0.33333 0.80003
vt 0.37500 0.80003
vt 0.41666 0.80003
vt 0.45833 0.80003
vt 0.50000 0.80003
vt 0.54166 0.80003
vt 0.58333 0.80003
vt 0.62500 0.80003
vt 0.66666 0.80003
vt 0.70833 0.80003
vt 0.75000 1.00000
vt 0.79166 1.00000
vt 0.83333 1.00000
vt 0.87500 1.00000
vt 0.91666 1.00000
vt 0.95833 1.00000
vt 1.00000 1.00000
vt -0.00003 1.00000
vt 0.04167 1.00000
vt 0.08333 1.00000
vt 0.12500 1.00000
vt 0.16666 1.00000
vt 0.20833 1.00000
vt 0.25000 1.00000
vt 0.29166 1.00000
vt 0.33333 1.00000
vt 0.37500 1.00000
vt 0.41666 1.00000
vt 0.45833 1.00000
vt 0.50000 1.00000
vt 0.54166 1.00000
vt 0.58333 1.00000
vt 0.62500 1.00000
vt 0.66666 1.00000
vt 0.70833 1.00000
vt 0.50003 0.00251
vt 0.74994 0.00052
vt 0.79160 0.00052
vt 0.83327 0.00052
vt 0.87494 0.00052
vt 0.91660 0.00052
vt 0.95827 0.00052
vt 0.99992 0.00052
vt -0.00007 0.00052
vt 0.04162 0.00052
vt 0.08329 0.00052
vt 0.12495 0.00052
vt 0.16662 0.00052
vt 0.20829 0.00052
vt 0.24995 0.00052
vt 0.29161 0.00052
vt 0.33327 0.00052
vt 0.37495 0.00052
vt 0.41661 0.00052
vt 0.45827 0.00052
vt 0.49995 0.00052
vt 0.54160 0.00052
vt 0.58327 0.00052
vt 0.62494 0.00052
vt 0.66660 0.00052
vt 0.70827 0.00052
# 176 texture coordinates

vn -0.0598456 0.774117 0.630207
vn 0.676515 0.536231 0.504761
vn 0.638382 0.418067 0.646288
vn 0.553923 0.307947 0.773523
vn 0.428883 0.213379 0.877798
vn 0.27179 0.140817 0.951998
vn 0.0933445 0.0952195 0.99107
vn -0.0942512 0.0796573 0.992357
vn -0.278286 0.0952204 0.955767
vn -0.446192 0.140814 0.88379
vn -0.586491 0.213383 0.781342
vn -0.689667 0.307942 0.655386
vn -0.748666 0.418068 0.514507
vn -0.759455 0.536231 0.368352
vn -0.721333 0.654394 0.226819
vn -0.636862 0.764522 0.0995653
vn -0.511822 0.859079 -0.00468759
vn -0.354724 0.931638 -0.0788761
vn -0.176286 0.977248 -0.117941
vn 0.0113127 0.9928 -0.119252
vn 0.195349 0.977244 -0.0826584
vn 0.363225 0.93164 -0.0106877
vn 0.503544 0.859084 0.0917523
vn 0.606732 0.764517 0.217692
vn 0.665716 0.654403 0.358578
vn 0.0598456 -0.774117 -0.630207
# 26 vertex normals

usemtl FlowerCone
f 1/3/1 2/2/1 3/1/1
f 1/3/1 4/4/1 2/2/1
f 1/3/1 5/5/1 4/4/1
f 1/3/1 6/6/1 5/5/1
f 1/3/1 7/7/1 6/6/1
f 1/3/1 8/8/1 7/7/1
f 1/3/1 9/10/1 8/9/1
f 1/3/1 10/11/1 9/10/1
f 1/3/1 11/12/1 10/11/1
f 1/3/1 12/13/1 11/12/1
f 1/3/1 13/14/1 12/13/1
f 1/3/1 14/15/1 13/14/1
f 1/3/1 15/16/1 14/15/1
f 1/3/1 16/17/1 15/16/1
f 1/3/1 17/18/1 16/17/1
f 1/3/1 18/19/1 17/18/1
f 1/3/1 19/20/1 18/19/1
f 1/3/1 20/3/1 19/20/1
f 1/3/1 21/21/1 20/3/1
f 1/3/1 22/22/1 21/21/1
f 1/3/1 23/23/1 22/22/1
f 1/3/1 24/24/1 23/23/1
f 1/3/1 25/25/1 24/24/1
f 1/3/1 3/1/1 25/25/1
f 3/1/2 26/27/3 27/26/2
f 3/1/2 2/2/3 26/27/3
f 2/2/3 28/28/4 26/27/3
f 2/2/3 4/4/4 28/28/4
f 4/4/4 29/29/5 28/28/4
f 4/4/4 5/5/5 29/29/5
f 5/5/5 30/30/6 29/29/5
f 5/5/5 6/6/6 30/30/6
f 6/6/6 31/31/7 30/30/6
f 6/6/6 7/7/7 31/31/7
f 7/7/7 32/32/8 31/31/7
f 7/7/7 8/8/8 32/32/8
f 8/9/8 33/34/9 32/33/8
f 8/9/8 9/10/9 33/34/9
f 9/10/9 34/35/10 33/34/9
f 9/10/9 10/11/10 34/35/10
f 10/11/10 35/36/11 34/35/10
f 10/11/10 11/12/11 35/36/11
f 11/12/11 36/37/12 35/36/11
f 11/12/11 12/13/12 36/37/12
f 12/13/12 37/38/13 36/37/12
f 12/13/12 13/14/13 37/38/13
f 13/14/13 38/39/14 37/38/13
f 13/14/13 14/15/14 38/39/14
f 14/15/14 39/40/15 38/39/14
f 14/15/14 15/16/15 39/40/15
f 15/16/15 40/41/16 39/40/15
f 15/16/15 16/17/16 40/41/16
f 16/17/16 41/42/17 40/41/16
f 16/17/16 17/18/17 41/42/17
f 17/18/17 42/43/18 41/42/17
f 17/18/17 18/19/18 42/43/18
f 18/19/18 43/44/19 42/43/18
f 18/19/18 19/20/19 43/44/19
f 19/20/19 44/45/20 43/44/19
f 19/20/19 20/3/20 44/45/20
f 20/3/20 45/46/21 44/45/20
f 20/3/20 21/21/21 45/46/21
f 21/21/21 46/47/22 45/46/21
f 21/21/21 22/22/22 46/47/22
f 22/22/22 47/48/23 46/47/22
f 22/22/22 23/23/23 47/48/23
f 23/23/23 48/49/24 47/48/23
f 23/23/23 24/24/24 48/49/24
f 24/24/24 49/50/25 48/49/24
f 24/24/24 25/25/25 49/50/25
f 25/25/25 27/26/2 49/50/25
f 25/25/25 3/1/2 27/26/2
f 27/26/2 50/52/3 51/51/2
f 27/26/2 26/27/3 50/52/3
f 26/27/3 52/53/4 50/52/3
f 26/27/3 28/28/4 52/53/4
f 28/28/4 53/54/5 52/53/4
f 28/28/4 29/29/5 53/54/5
f 29/29/5 54/55/6 53/54/5
f 29/29/5 30/30/6 54/55/6
f 30/30/6 55/56/7 54/55/6
f 30/30/6 31/31/7 55/56/7
f 31/31/7 56/57/8 55/56/7
f 31/31/7 32/32/8 56/57/8
f 32/33/8 57/59/9 56/58/8
f 32/33/8 33/34/9 57/59/9
f 33/34/9 58/60/10 57/59/9
f 33/34/9 34/35/10 58/60/10
f 34/35/10 59/61/11 58/60/10
f 34/35/10 35/36/11 59/61/11
f 35/36/11 60/62/12 59/61/11
f 35/36/11 36/37/12 60/62/12
f 36/37/12 61/63/13 60/62/12
f 36/37/12 37/38/13 61/63/13
f 37/38/13 62/64/14 61/63/13
f 37/38/13 38/39/14 62/64/14
f 38/39/14 63/65/15 62/64/14
f 38/39/14 39/40/15 63/65/15
f 39/40/15 64/66/16 63/65/15
f 39/40/15 40/41/16 64/66/16
f 40/41/16 65/67/17 64/66/16
f 40/41/16 41/42/17 65/67/17
f 41/42/17 66/68/18 65/67/17
f 41/42/17 42/43/18 66/68/18
f 42/43/18 67/69/19 66/68/18
f 42/43/18 43/44/19 67/69/19
f 43/44/19 68/70/20 67/69/19
f 43/44/19 44/45/20 68/70/20
f 44/45/20 69/71/21 68/70/20
f 44/45/20 45/46/21 69/71/21
f 45/46/21 70/72/22 69/71/21
f 45/46/21 46/47/22 70/72/22
f 46/47/22 71/73/23 70/72/22
f 46/47/22 47/48/23 71/73/23
f 47/48/23 72/74/24 71/73/23
f 47/48/23 48/49/24 72/74/24
f 48/49/24 73/75/25 72/74/24
f 48/49/24 49/50/25 73/75/25
f 49/50/25 51/51/2 73/75/25
f 49/50/25 27/26/2 51/51/2
f 51/51/2 74/77/3 75/76/2
f 51/51/2 50/52/3 74/77/3
f 50/52/3 76/78/4 74/77/3
f 50/52/3 52/53/4 76/78/4
f 52/53/4 77/79/5 76/78/4
f 52/53/4 53/54/5 77/79/5
f 53/54/5 78/80/6 77/79/5
f 53/54/5 54/55/6 78/80/6
f 54/55/6 79/81/7 78/80/6
f 54/55/6 55/56/7 79/81/7
f 55/56/7 80/82/8 79/81/7
f 55/56/7 56/57/8 80/82/8
f 56/58/8 81/84/9 80/83/8
f 56/58/8 57/59/9 81/84/9
f 57/59/9 82/85/10 81/84/9
f 57/59/9 58/60/10 82/85/10
f 58/60/10 83/86/11 82/85/10
f 58/60/10 59/61/11 83/86/11
f 59/61/11 84/87/12 83/86/11
f 59/61/11 60/62/12 84/87/12
f 60/62/12 85/88/13 84/87/12
f 60/62/12 61/63/13 85/88/13
f 61/63/13 86/89/14 85/88/13
f 61/63/13 62/64/14 86/89/14
f 62/64/14 87/90/15 86/89/14
f 62/64/14 63/65/15 87/90/15
f 63/65/15 88/91/16 87/90/15
f 63/65/15 64/66/16 88/91/16
f 64/66/16 89/92/17 88/91/16
f 64/66/16 65/67/17 89/92/17
f 65/67/17 90/93/18 89/92/17
f 65/67/17 66/68/18 90/93/18
f 66/68/18 91/94/19 90/93/18
f 66/68/18 67/69/19 91/94/19
f 67/69/19 92/95/20 91/94/19
f 67/69/19 68/70/20 92/95/20
f 68/70/20 93/96/21 92/95/20
f 68/70/20 69/71/21 93/96/21
f 69/71/21 94/97/22 93/96/21
f 69/71/21 70/72/22 94/97/22
f 70/72/22 95/98/23 94/97/22
f 70/72/22 71/73/23 95/98/23
f 71/73/23 96/99/24 95/98/23
f 71/73/23 72/74/24 96/99/24
f 72/74/24 97/100/25 96/99/24
f 72/74/24 73/75/25 97/100/25
f 73/75/25 75/76/2 97/100/25
f 73/75/25 51/51/2 75/76/2
f 75/76/2 98/102/3 99/101/2
f 75/76/2 74/77/3 98/102/3
f 74/77/3 100/103/4 98/102/3
f 74/77/3 76/78/4 100/103/4
f 76/78/4 101/104/5 100/103/4
f 76/78/4 77/79/5 101/104/5
f 77/79/5 102/105/6 101/104/5
f 77/79/5 78/80/6 102/105/6
f 78/80/6 103/106/7 102/105/6
f 78/80/6 79/81/7 103/106/7
f 79/81/7 104/107/8 103/106/7
f 79/81/7 80/82/8 104/107/8
f 80/83/8 105/109/9 104/108/8
f 80/83/8 81/84/9 105/109/9
f 81/84/9 106/110/10 105/109/9
f 81/84/9 82/85/10 106/110/10
f 82/85/10 107/111/11 106/110/10
f 82/85/10 83/86/11 107/111/11
f 83/86/11 108/112/12 107/111/11
f 83/86/11 84/87/12 108/112/12
f 84/87/12 109/113/13 108/112/12
f 84/87/12 85/88/13 109/113/13
f 85/88/13 110/114/14 109/113/13
f 85/88/13 86/89/14 110/114/14
f 86/89/14 111/115/15 110/114/14
f 86/89/14 87/90/15 111/115/15
f 87/90/15 112/116/16 111/115/15
f 87/90/15 88/91/16 112/116/16
f 88/91/16 113/117/17 112/116/16
f 88/91/16 89/92/17 113/117/17
f 89/92/17 114/118/18 113/117/17
f 89/92/17 90/93/18 114/118/18
f 90/93/18 115/119/19 114/118/18
f 90/93/18 91/94/19 115/119/19
f 91/94/19 116/120/20 115/119/19
f 91/94/19 92/95/20 116/120/20
f 92/95/20 117/121/21 116/120/20
f 92/95/20 93/96/21 117/121/21
f 93/96/21 118/122/22 117/121/21
f 93/96/21 94/97/22 118/122/22
f 94/97/22 119/123/23 118/122/22
f 94/97/22 95/98/23 119/123/23
f 95/98/23 120/124/24 119/123/23
f 95/98/23 96/99/24 120/124/24
f 96/99/24 121/125/25 120/124/24
f 96/99/24 97/100/25 121/125/25
f 97/100/25 99/101/2 121/125/25
f 97/100/25 75/76/2 99/101/2
f 99/101/2 122/127/3 123/126/2
f 99/101/2 98/102/3 122/127/3
f 98/102/3 124/128/4 122/127/3
f 98/102/3 100/103/4 124/128/4
f 100/103/4 125/129/5 124/128/4
f 100/103/4 101/104/5 125/129/5
f 101/104/5 126/130/6 125/129/5
f 101/104/5 102/105/6 126/130/6
f 102/105/6 127/131/7 126/130/6
f 102/105/6 103/106/7 127/131/7
f 103/106/7 128/132/8 127/131/7
f 103/106/7 104/107/8 128/132/8
f 104/108/8 129/134/9 128/133/8
f 104/108/8 105/109/9 129/134/9
f 105/109/9 130/135/10 129/134/9
f 105/109/9 106/110/10 130/135/10
f 106/110/10 131/136/11 130/135/10
f 106/110/10 107/111/11 131/136/11
f 107/111/11 132/137/12 131/136/11
f 107/111/11 108/112/12 132/137/12
f 108/112/12 133/138/13 132/137/12
f 108/112/12 109/113/13 133/138/13
f 109/113/13 134/139/14 133/138/13
f 109/113/13 110/114/14 134/139/14
f 110/114/14 135/140/15 134/139/14
f 110/114/14 111/115/15 135/140/15
f 111/115/15 136/141/16 135/140/15
f 111/115/15 112/116/16 136/141/16
f 112/116/16 137/142/17 136/141/16
f 112/116/16 113/117/17 137/142/17
f 113/117/17 138/143/18 137/142/17
f 113/117/17 114/118/18 138/143/18
f 114/118/18 139/144/19 138/143/18
f 114/118/18 115/119/19 139/144/19
f 115/119/19 140/145/20 139/144/19
f 115/119/19 116/120/20 140/145/20
f 116/120/20 141/146/21 140/145/20
f 116/120/20 117/121/21 141/146/21
f 117/121/21 142/147/22 141/146/21
f 117/121/21 118/122/22 142/147/22
f 118/122/22 143/148/23 142/147/22
f 118/122/22 119/123/23 143/148/23
f 119/123/23 144/149/24 143/148/23
f 119/123/23 120/124/24 144/149/24
f 120/124/24 145/150/25 144/149/24
f 120/124/24 121/125/25 145/150/25
f 121/125/25 123/126/2 145/150/25
f 121/125/25 99/101/2 123/126/2
f 146/153/26 147/152/26 148/151/26
f 149/154/26 150/153/26 151/151/26
f 152/155/26 153/154/26 154/151/26
f 155/156/26 156/155/26 157/151/26
f 158/157/26 159/156/26 160/151/26
f 161/158/26 162/157/26 163/151/26
f 164/160/26 165/159/26 166/151/26
f 167/161/26 168/160/26 169/151/26
f 170/162/26 171/161/26 172/151/26
f 173/163/26 174/162/26 175/151/26
f 176/164/26 177/163/26 178/151/26
f 179/165/26 180/164/26 181/151/26
f 182/166/26 183/165/26 184/151/26
f 185/167/26 186/166/26 187/151/26
f 188/168/26 189/167/26 190/151/26
f 191/169/26 192/168/26 193/151/26
f 194/170/26 195/169/26 196/151/26
f 197/171/26 198/170/26 199/151/26
f 200/172/26 201/171/26 202/151/26
f 203/173/26 204/172/26 205/151/26
f 206/174/26 207/173/26 208/151/26
f 209/175/26 210/174/26 211/151/26
f 212/176/26 213/175/26 214/151/26
f 215/152/26 216/176/26 217/151/26
# 288 facets

