# 3ds Max Wavefront OBJ Exporter v0.97b - (c)2007 guruware
# File Created: 01.04.2013 01:30:48

#mtllib F02.mtl

#
# object F02
#

v  -89.515015 -220.783997 279.964600
v  -85.490707 -221.805130 281.908844
v  -85.155251 -220.783997 281.382477
v  -86.100410 -222.756683 282.302734
v  -86.942818 -223.573792 282.537292
v  -87.960518 -224.200790 282.596497
v  -89.084145 -224.594925 282.476379
v  -90.237144 -224.729370 282.185059
v  -91.340927 -224.594925 281.742432
v  -92.320282 -224.200790 281.178650
v  -93.108452 -223.573792 280.532135
v  -93.651749 -222.756683 279.846924
v  -93.913124 -221.805130 279.169739
v  -93.874779 -220.783997 278.546722
v  -93.539322 -219.762863 278.020355
v  -92.929619 -218.811310 277.626465
v  -92.087212 -217.994202 277.391907
v  -91.069519 -217.367203 277.332703
v  -89.945885 -216.973068 277.452820
v  -88.792885 -216.838623 277.744141
v  -87.689102 -216.973068 278.186768
v  -86.709755 -217.367203 278.750549
v  -85.921577 -217.994202 279.397064
v  -85.378281 -218.811310 280.082275
v  -85.116905 -219.762863 280.759460
v  -75.069962 -228.689865 277.853394
v  -74.078827 -225.672791 276.298157
v  -76.871407 -231.501312 279.017181
v  -79.360390 -233.915558 279.710175
v  -82.367287 -235.768082 279.885162
v  -85.687180 -236.932617 279.530212
v  -89.093834 -237.329819 278.669495
v  -92.355080 -236.932617 277.361694
v  -95.248680 -235.768082 275.695953
v  -97.577438 -233.915558 273.785736
v  -99.182648 -231.501312 271.761230
v  -99.954926 -228.689865 269.760437
v  -99.841629 -225.672791 267.919678
v  -98.850487 -222.655731 266.364410
v  -97.049042 -219.844284 265.200653
v  -94.560066 -217.430038 264.507629
v  -91.553169 -215.577515 264.332672
v  -88.233276 -214.412979 264.687622
v  -84.826622 -214.015762 265.548309
v  -81.565369 -214.412979 266.856110
v  -78.671768 -215.577515 268.521881
v  -76.343010 -217.430023 270.432098
v  -74.737801 -219.844284 272.456604
v  -73.965530 -222.655731 274.457397
v  -64.649223 -235.574585 273.797974
v  -63.002396 -230.561600 271.213837
v  -67.642403 -240.245941 275.731659
v  -71.777954 -244.257324 276.883087
v  -76.774055 -247.335373 277.173828
v  -82.290215 -249.270309 276.584045
v  -87.950523 -249.930283 275.153961
v  -93.369240 -249.270309 272.980988
v  -98.177086 -247.335373 270.213226
v  -102.046417 -244.257324 267.039307
v  -104.713547 -240.245941 263.675537
v  -105.996719 -235.574585 260.351135
v  -105.808472 -230.561600 257.292633
v  -104.161644 -225.548615 254.708496
v  -101.168472 -220.877258 252.774811
v  -97.032921 -216.865875 251.623367
v  -92.036819 -213.787827 251.332626
v  -86.520660 -211.852890 251.922394
v  -80.860352 -211.192917 253.352509
v  -75.441635 -211.852890 255.525467
v  -70.633789 -213.787811 258.293213
v  -66.764450 -216.865860 261.467133
v  -64.097321 -220.877243 264.830933
v  -62.814152 -225.548599 268.155334
v  -54.228481 -242.459305 269.742523
v  -51.925968 -235.450394 266.129517
v  -58.413399 -248.990570 272.446106
v  -64.195526 -254.599091 274.056000
v  -71.180817 -258.902649 274.462494
v  -78.893242 -261.608002 273.637909
v  -86.807213 -262.530731 271.638397
v  -94.383392 -261.608002 268.600281
v  -101.105492 -258.902649 264.730530
v  -106.515404 -254.599091 260.292908
v  -110.244453 -248.990570 255.589844
v  -112.038513 -242.459305 250.941818
v  -111.775314 -235.450394 246.665588
v  -109.472809 -228.441498 243.052567
v  -105.287895 -221.910233 240.348984
v  -99.505768 -216.301712 238.739090
v  -92.520477 -211.998138 238.332596
v  -84.808052 -209.292801 239.157196
v  -76.894089 -208.370056 241.156677
v  -69.317902 -209.292786 244.194824
v  -62.595802 -211.998123 248.064545
v  -57.185886 -216.301697 252.502167
v  -53.456833 -221.910217 257.205231
v  -51.662773 -228.441467 261.853271
v  -43.807743 -249.344025 265.687103
v  -40.849545 -240.339203 261.045197
v  -49.184395 -257.735199 269.160553
v  -56.613098 -264.940857 271.228912
v  -65.587593 -270.469940 271.751160
v  -75.496277 -273.945679 270.691742
v  -85.663895 -275.131195 268.122864
v  -95.397545 -273.945679 264.219543
v  -104.033890 -270.469940 259.247833
v  -110.984383 -264.940857 253.546524
v  -115.775352 -257.735199 247.504150
v  -118.080307 -249.344025 241.532501
v  -117.742165 -240.339203 236.038528
v  -114.783966 -231.334366 231.396637
v  -109.407318 -222.943207 227.923157
v  -101.978622 -215.737549 225.854828
v  -93.004128 -210.208435 225.332550
v  -83.095444 -206.732712 226.391968
v  -72.927818 -205.547195 228.960876
v  -63.194172 -206.732712 232.864166
v  -54.557823 -210.208435 237.835876
v  -47.607330 -215.737518 243.537201
v  -42.816357 -222.943176 249.579559
v  -40.511398 -231.334351 255.551208
v  -33.386997 -256.228760 261.631653
v  -29.773117 -245.227997 255.960876
v  -39.955391 -266.479828 265.875031
v  -49.030666 -275.282623 268.401794
v  -59.994362 -282.037231 269.039825
v  -72.099312 -286.283386 267.745605
v  -84.520584 -287.731628 264.607300
v  -96.411705 -286.283386 259.838837
v  -106.962296 -282.037231 253.765121
v  -115.453369 -275.282623 246.800125
v  -121.306259 -266.479828 239.418457
v  -124.122101 -256.228760 232.123199
v  -123.709007 -245.227997 225.411484
v  -120.095131 -234.227249 219.740707
v  -113.526749 -223.976166 215.497345
v  -104.451477 -215.173370 212.970551
v  -93.487778 -208.418747 212.332520
v  -81.382828 -204.172623 213.626770
v  -68.961555 -202.724335 216.765045
v  -57.070438 -204.172607 221.533524
v  -46.519836 -208.418732 227.607208
v  -38.028763 -215.173355 234.572220
v  -32.175873 -223.976151 241.953888
v  -29.360023 -234.227219 249.249146
v  -76.741058 -245.227997 240.686172
# 146 vertices

vn -0.266154 0.509308 0.818393
vn 0.513520 0.347551 0.784542
vn 0.460033 0.184735 0.868471
vn 0.362818 0.033015 0.931275
vn 0.228501 -0.097269 0.968672
vn 0.066234 -0.197240 0.978115
vn -0.112924 -0.260085 0.958960
vn -0.296763 -0.281520 0.912512
vn -0.472756 -0.260085 0.841937
vn -0.628909 -0.197240 0.752044
vn -0.754580 -0.097269 0.648959
vn -0.841205 0.033015 0.539708
vn -0.882880 0.184735 0.431735
vn -0.876766 0.347551 0.332399
vn -0.823280 0.510366 0.248470
vn -0.726065 0.662086 0.185666
vn -0.591748 0.792371 0.148268
vn -0.591748 0.792371 0.148269
vn -0.429481 0.892342 0.138826
vn -0.250323 0.955186 0.157981
vn -0.066484 0.976621 0.204429
vn -0.066484 0.976621 0.204428
vn 0.109509 0.955186 0.275004
vn 0.265662 0.892342 0.364897
vn 0.391333 0.792371 0.467981
vn 0.477958 0.662086 0.577233
vn 0.519634 0.510366 0.685206
vn -0.472756 -0.260084 0.841937
vn -0.876767 0.347551 0.332399
vn -0.823280 0.510366 0.248469
vn -0.429481 0.892342 0.138825
vn -0.066483 0.976621 0.204428
vn -0.841205 0.033016 0.539708
vn -0.591748 0.792370 0.148268
vn -0.066483 0.976621 0.204429
vn -0.112924 -0.260084 0.958960
vn -0.296763 -0.281519 0.912512
vn 0.266154 -0.509308 -0.818393
# 38 vertex normals

vt 0.500000 0.000000 0.000000
vt 0.791667 0.000000 0.092824
vt 0.750000 0.000000 0.092824
vt 0.833333 0.000000 0.092824
vt 0.875000 0.000000 0.092824
vt 0.916667 0.000000 0.092824
vt 0.958333 0.000000 0.092824
vt 1.000000 0.000000 0.092824
vt 0.041667 0.000000 0.092824
vt -0.000000 0.000000 0.092824
vt 0.083333 0.000000 0.092824
vt 0.125000 0.000000 0.092824
vt 0.166667 0.000000 0.092824
vt 0.208333 0.000000 0.092824
vt 0.250000 0.000000 0.092824
vt 0.291667 0.000000 0.092824
vt 0.333333 0.000000 0.092824
vt 0.375000 0.000000 0.092824
vt 0.416667 0.000000 0.092824
vt 0.458333 0.000000 0.092824
vt 0.500000 0.000000 0.092824
vt 0.541667 0.000000 0.092824
vt 0.583333 0.000000 0.092824
vt 0.625000 0.000000 0.092824
vt 0.666667 0.000000 0.092824
vt 0.708333 0.000000 0.092824
vt 0.791667 0.200000 0.274259
vt 0.750000 0.200000 0.274259
vt 0.833333 0.200000 0.274259
vt 0.875000 0.200000 0.274259
vt 0.916667 0.200000 0.274259
vt 0.958333 0.200000 0.274259
vt 1.000000 0.200000 0.274259
vt 0.041667 0.200000 0.274259
vt -0.000000 0.200000 0.274259
vt 0.083333 0.200000 0.274259
vt 0.125000 0.200000 0.274259
vt 0.166667 0.200000 0.274259
vt 0.208333 0.200000 0.274259
vt 0.250000 0.200000 0.274259
vt 0.291667 0.200000 0.274259
vt 0.333333 0.200000 0.274259
vt 0.375000 0.200000 0.274259
vt 0.416667 0.200000 0.274259
vt 0.458333 0.200000 0.274259
vt 0.500000 0.200000 0.274259
vt 0.541667 0.200000 0.274259
vt 0.583333 0.200000 0.274259
vt 0.625000 0.200000 0.274259
vt 0.666667 0.200000 0.274259
vt 0.708333 0.200000 0.274259
vt 0.791667 0.400000 0.455695
vt 0.750000 0.400000 0.455695
vt 0.833333 0.400000 0.455695
vt 0.875000 0.400000 0.455694
vt 0.916667 0.400000 0.455695
vt 0.958333 0.400000 0.455695
vt 1.000000 0.400000 0.455695
vt 0.041667 0.400000 0.455695
vt -0.000000 0.400000 0.455695
vt 0.083333 0.400000 0.455695
vt 0.125000 0.400000 0.455695
vt 0.166667 0.400000 0.455695
vt 0.208333 0.400000 0.455695
vt 0.250000 0.400000 0.455695
vt 0.291667 0.400000 0.455695
vt 0.333333 0.400000 0.455695
vt 0.375000 0.400000 0.455695
vt 0.416667 0.400000 0.455694
vt 0.458333 0.400000 0.455694
vt 0.500000 0.400000 0.455695
vt 0.541667 0.400000 0.455695
vt 0.583333 0.400000 0.455695
vt 0.625000 0.400000 0.455695
vt 0.666667 0.400000 0.455695
vt 0.708333 0.400000 0.455694
vt 0.791667 0.600000 0.637130
vt 0.750000 0.600000 0.637130
vt 0.833333 0.600000 0.637130
vt 0.875000 0.600000 0.637130
vt 0.916667 0.600000 0.637130
vt 0.958333 0.600000 0.637130
vt 1.000000 0.600000 0.637130
vt 0.041667 0.600000 0.637130
vt -0.000000 0.600000 0.637130
vt 0.083333 0.600000 0.637130
vt 0.125000 0.600000 0.637130
vt 0.166667 0.600000 0.637130
vt 0.208333 0.600000 0.637130
vt 0.250000 0.600000 0.637130
vt 0.291667 0.600000 0.637130
vt 0.333333 0.600000 0.637130
vt 0.375000 0.600000 0.637130
vt 0.416667 0.600000 0.637130
vt 0.458333 0.600000 0.637130
vt 0.500000 0.600000 0.637130
vt 0.541667 0.600000 0.637130
vt 0.583333 0.600000 0.637130
vt 0.625000 0.600000 0.637130
vt 0.666667 0.600000 0.637130
vt 0.708333 0.600000 0.637130
vt 0.791667 0.800000 0.818565
vt 0.750000 0.800000 0.818565
vt 0.833333 0.800000 0.818565
vt 0.875000 0.800000 0.818565
vt 0.916667 0.800000 0.818565
vt 0.958333 0.800000 0.818565
vt 1.000000 0.800000 0.818565
vt 0.041667 0.800000 0.818565
vt -0.000000 0.800000 0.818565
vt 0.083333 0.800000 0.818565
vt 0.125000 0.800000 0.818565
vt 0.166667 0.800000 0.818565
vt 0.208333 0.800000 0.818565
vt 0.250000 0.800000 0.818565
vt 0.291667 0.800000 0.818565
vt 0.333333 0.800000 0.818565
vt 0.375000 0.800000 0.818565
vt 0.416667 0.800000 0.818565
vt 0.458333 0.800000 0.818565
vt 0.500000 0.800000 0.818565
vt 0.541667 0.800000 0.818565
vt 0.583333 0.800000 0.818565
vt 0.625000 0.800000 0.818565
vt 0.666667 0.800000 0.818565
vt 0.708333 0.800000 0.818565
vt 0.791667 1.000000 1.000000
vt 0.750000 1.000000 1.000000
vt 0.833333 1.000000 1.000000
vt 0.875000 1.000000 1.000000
vt 0.916667 1.000000 1.000000
vt 0.958333 1.000000 1.000000
vt 1.000000 1.000000 1.000000
vt 0.041667 1.000000 1.000000
vt -0.000000 1.000000 1.000000
vt 0.083333 1.000000 1.000000
vt 0.125000 1.000000 1.000000
vt 0.166667 1.000000 1.000000
vt 0.208333 1.000000 1.000000
vt 0.250000 1.000000 1.000000
vt 0.291667 1.000000 1.000000
vt 0.333333 1.000000 1.000000
vt 0.375000 1.000000 1.000000
vt 0.416667 1.000000 1.000000
vt 0.458333 1.000000 1.000000
vt 0.500000 1.000000 1.000000
vt 0.541667 1.000000 1.000000
vt 0.583333 1.000000 1.000000
vt 0.625000 1.000000 1.000000
vt 0.666667 1.000000 1.000000
vt 0.708333 1.000000 1.000000
vt 0.500000 1.000000 0.000000
# 152 texture coords

g F02
usemtl 17___Default
s 1
f 1/1/1 2/2/1 3/3/1 
f 1/1/1 4/4/1 2/2/1 
f 1/1/1 5/5/1 4/4/1 
f 1/1/1 6/6/1 5/5/1 
f 1/1/1 7/7/1 6/6/1 
f 1/1/1 8/8/1 7/7/1 
f 1/1/1 9/9/1 8/10/1 
f 1/1/1 10/11/1 9/9/1 
f 1/1/1 11/12/1 10/11/1 
f 1/1/1 12/13/1 11/12/1 
f 1/1/1 13/14/1 12/13/1 
f 1/1/1 14/15/1 13/14/1 
f 1/1/1 15/16/1 14/15/1 
f 1/1/1 16/17/1 15/16/1 
f 1/1/1 17/18/1 16/17/1 
f 1/1/1 18/19/1 17/18/1 
f 1/1/1 19/20/1 18/19/1 
f 1/1/1 20/21/1 19/20/1 
f 1/1/1 21/22/1 20/21/1 
f 1/1/1 22/23/1 21/22/1 
f 1/1/1 23/24/1 22/23/1 
f 1/1/1 24/25/1 23/24/1 
f 1/1/1 25/26/1 24/25/1 
f 1/1/1 3/3/1 25/26/1 
s 8
f 3/3/2 26/27/3 27/28/2 
f 3/3/2 2/2/3 26/27/3 
f 2/2/3 28/29/4 26/27/3 
f 2/2/3 4/4/4 28/29/4 
f 4/4/4 29/30/5 28/29/4 
f 4/4/4 5/5/5 29/30/5 
f 5/5/5 30/31/6 29/30/5 
f 5/5/5 6/6/6 30/31/6 
f 6/6/6 31/32/7 30/31/6 
f 6/6/6 7/7/7 31/32/7 
f 7/7/7 32/33/8 31/32/7 
f 7/7/7 8/8/8 32/33/8 
f 8/10/8 33/34/9 32/35/8 
f 8/10/8 9/9/9 33/34/9 
f 9/9/9 34/36/10 33/34/9 
f 9/9/9 10/11/10 34/36/10 
f 10/11/10 35/37/11 34/36/10 
f 10/11/10 11/12/11 35/37/11 
f 11/12/11 36/38/12 35/37/11 
f 11/12/11 12/13/12 36/38/12 
f 12/13/12 37/39/13 36/38/12 
f 12/13/12 13/14/13 37/39/13 
f 13/14/13 38/40/14 37/39/13 
f 13/14/13 14/15/14 38/40/14 
f 14/15/14 39/41/15 38/40/14 
f 14/15/14 15/16/15 39/41/15 
f 15/16/15 40/42/16 39/41/15 
f 15/16/15 16/17/16 40/42/16 
f 16/17/16 41/43/17 40/42/16 
f 16/17/16 17/18/18 41/43/17 
f 17/18/18 42/44/19 41/43/17 
f 17/18/18 18/19/19 42/44/19 
f 18/19/19 43/45/20 42/44/19 
f 18/19/19 19/20/20 43/45/20 
f 19/20/20 44/46/21 43/45/20 
f 19/20/20 20/21/22 44/46/21 
f 20/21/22 45/47/23 44/46/21 
f 20/21/22 21/22/23 45/47/23 
f 21/22/23 46/48/24 45/47/23 
f 21/22/23 22/23/24 46/48/24 
f 22/23/24 47/49/25 46/48/24 
f 22/23/24 23/24/25 47/49/25 
f 23/24/25 48/50/26 47/49/25 
f 23/24/25 24/25/26 48/50/26 
f 24/25/26 49/51/27 48/50/26 
f 24/25/26 25/26/27 49/51/27 
f 25/26/27 27/28/2 49/51/27 
f 25/26/27 3/3/2 27/28/2 
f 27/28/2 50/52/3 51/53/2 
f 27/28/2 26/27/3 50/52/3 
f 26/27/3 52/54/4 50/52/3 
f 26/27/3 28/29/4 52/54/4 
f 28/29/4 53/55/5 52/54/4 
f 28/29/4 29/30/5 53/55/5 
f 29/30/5 54/56/6 53/55/5 
f 29/30/5 30/31/6 54/56/6 
f 30/31/6 55/57/7 54/56/6 
f 30/31/6 31/32/7 55/57/7 
f 31/32/7 56/58/8 55/57/7 
f 31/32/7 32/33/8 56/58/8 
f 32/35/8 57/59/28 56/60/8 
f 32/35/8 33/34/9 57/59/28 
f 33/34/9 58/61/10 57/59/28 
f 33/34/9 34/36/10 58/61/10 
f 34/36/10 59/62/11 58/61/10 
f 34/36/10 35/37/11 59/62/11 
f 35/37/11 60/63/12 59/62/11 
f 35/37/11 36/38/12 60/63/12 
f 36/38/12 61/64/13 60/63/12 
f 36/38/12 37/39/13 61/64/13 
f 37/39/13 62/65/14 61/64/13 
f 37/39/13 38/40/14 62/65/14 
f 38/40/14 63/66/15 62/65/14 
f 38/40/14 39/41/15 63/66/15 
f 39/41/15 64/67/16 63/66/15 
f 39/41/15 40/42/16 64/67/16 
f 40/42/16 65/68/17 64/67/16 
f 40/42/16 41/43/17 65/68/17 
f 41/43/17 66/69/19 65/68/17 
f 41/43/17 42/44/19 66/69/19 
f 42/44/19 67/70/20 66/69/19 
f 42/44/19 43/45/20 67/70/20 
f 43/45/20 68/71/22 67/70/20 
f 43/45/20 44/46/21 68/71/22 
f 44/46/21 69/72/23 68/71/22 
f 44/46/21 45/47/23 69/72/23 
f 45/47/23 70/73/24 69/72/23 
f 45/47/23 46/48/24 70/73/24 
f 46/48/24 71/74/25 70/73/24 
f 46/48/24 47/49/25 71/74/25 
f 47/49/25 72/75/26 71/74/25 
f 47/49/25 48/50/26 72/75/26 
f 48/50/26 73/76/27 72/75/26 
f 48/50/26 49/51/27 73/76/27 
f 49/51/27 51/53/2 73/76/27 
f 49/51/27 27/28/2 51/53/2 
f 51/53/2 74/77/3 75/78/2 
f 51/53/2 50/52/3 74/77/3 
f 50/52/3 76/79/4 74/77/3 
f 50/52/3 52/54/4 76/79/4 
f 52/54/4 77/80/5 76/79/4 
f 52/54/4 53/55/5 77/80/5 
f 53/55/5 78/81/6 77/80/5 
f 53/55/5 54/56/6 78/81/6 
f 54/56/6 79/82/7 78/81/6 
f 54/56/6 55/57/7 79/82/7 
f 55/57/7 80/83/8 79/82/7 
f 55/57/7 56/58/8 80/83/8 
f 56/60/8 81/84/9 80/85/8 
f 56/60/8 57/59/28 81/84/9 
f 57/59/28 82/86/10 81/84/9 
f 57/59/28 58/61/10 82/86/10 
f 58/61/10 83/87/11 82/86/10 
f 58/61/10 59/62/11 83/87/11 
f 59/62/11 84/88/12 83/87/11 
f 59/62/11 60/63/12 84/88/12 
f 60/63/12 85/89/13 84/88/12 
f 60/63/12 61/64/13 85/89/13 
f 61/64/13 86/90/29 85/89/13 
f 61/64/13 62/65/14 86/90/29 
f 62/65/14 87/91/30 86/90/29 
f 62/65/14 63/66/15 87/91/30 
f 63/66/15 88/92/16 87/91/30 
f 63/66/15 64/67/16 88/92/16 
f 64/67/16 89/93/17 88/92/16 
f 64/67/16 65/68/17 89/93/17 
f 65/68/17 90/94/31 89/93/17 
f 65/68/17 66/69/19 90/94/31 
f 66/69/19 91/95/20 90/94/31 
f 66/69/19 67/70/20 91/95/20 
f 67/70/20 92/96/32 91/95/20 
f 67/70/20 68/71/22 92/96/32 
f 68/71/22 93/97/23 92/96/32 
f 68/71/22 69/72/23 93/97/23 
f 69/72/23 94/98/24 93/97/23 
f 69/72/23 70/73/24 94/98/24 
f 70/73/24 95/99/25 94/98/24 
f 70/73/24 71/74/25 95/99/25 
f 71/74/25 96/100/26 95/99/25 
f 71/74/25 72/75/26 96/100/26 
f 72/75/26 97/101/27 96/100/26 
f 72/75/26 73/76/27 97/101/27 
f 73/76/27 75/78/2 97/101/27 
f 73/76/27 51/53/2 75/78/2 
f 75/78/2 98/102/3 99/103/2 
f 75/78/2 74/77/3 98/102/3 
f 74/77/3 100/104/4 98/102/3 
f 74/77/3 76/79/4 100/104/4 
f 76/79/4 101/105/5 100/104/4 
f 76/79/4 77/80/5 101/105/5 
f 77/80/5 102/106/6 101/105/5 
f 77/80/5 78/81/6 102/106/6 
f 78/81/6 103/107/7 102/106/6 
f 78/81/6 79/82/7 103/107/7 
f 79/82/7 104/108/8 103/107/7 
f 79/82/7 80/83/8 104/108/8 
f 80/85/8 105/109/28 104/110/8 
f 80/85/8 81/84/9 105/109/28 
f 81/84/9 106/111/10 105/109/28 
f 81/84/9 82/86/10 106/111/10 
f 82/86/10 107/112/11 106/111/10 
f 82/86/10 83/87/11 107/112/11 
f 83/87/11 108/113/33 107/112/11 
f 83/87/11 84/88/12 108/113/33 
f 84/88/12 109/114/13 108/113/33 
f 84/88/12 85/89/13 109/114/13 
f 85/89/13 110/115/14 109/114/13 
f 85/89/13 86/90/29 110/115/14 
f 86/90/29 111/116/15 110/115/14 
f 86/90/29 87/91/30 111/116/15 
f 87/91/30 112/117/16 111/116/15 
f 87/91/30 88/92/16 112/117/16 
f 88/92/16 113/118/34 112/117/16 
f 88/92/16 89/93/17 113/118/34 
f 89/93/17 114/119/19 113/118/34 
f 89/93/17 90/94/31 114/119/19 
f 90/94/31 115/120/20 114/119/19 
f 90/94/31 91/95/20 115/120/20 
f 91/95/20 116/121/35 115/120/20 
f 91/95/20 92/96/32 116/121/35 
f 92/96/32 117/122/23 116/121/35 
f 92/96/32 93/97/23 117/122/23 
f 93/97/23 118/123/24 117/122/23 
f 93/97/23 94/98/24 118/123/24 
f 94/98/24 119/124/25 118/123/24 
f 94/98/24 95/99/25 119/124/25 
f 95/99/25 120/125/26 119/124/25 
f 95/99/25 96/100/26 120/125/26 
f 96/100/26 121/126/27 120/125/26 
f 96/100/26 97/101/27 121/126/27 
f 97/101/27 99/103/2 121/126/27 
f 97/101/27 75/78/2 99/103/2 
f 99/103/2 122/127/3 123/128/2 
f 99/103/2 98/102/3 122/127/3 
f 98/102/3 124/129/4 122/127/3 
f 98/102/3 100/104/4 124/129/4 
f 100/104/4 125/130/5 124/129/4 
f 100/104/4 101/105/5 125/130/5 
f 101/105/5 126/131/6 125/130/5 
f 101/105/5 102/106/6 126/131/6 
f 102/106/6 127/132/36 126/131/6 
f 102/106/6 103/107/7 127/132/36 
f 103/107/7 128/133/37 127/132/36 
f 103/107/7 104/108/8 128/133/37 
f 104/110/8 129/134/28 128/135/37 
f 104/110/8 105/109/28 129/134/28 
f 105/109/28 130/136/10 129/134/28 
f 105/109/28 106/111/10 130/136/10 
f 106/111/10 131/137/11 130/136/10 
f 106/111/10 107/112/11 131/137/11 
f 107/112/11 132/138/33 131/137/11 
f 107/112/11 108/113/33 132/138/33 
f 108/113/33 133/139/13 132/138/33 
f 108/113/33 109/114/13 133/139/13 
f 109/114/13 134/140/14 133/139/13 
f 109/114/13 110/115/14 134/140/14 
f 110/115/14 135/141/15 134/140/14 
f 110/115/14 111/116/15 135/141/15 
f 111/116/15 136/142/16 135/141/15 
f 111/116/15 112/117/16 136/142/16 
f 112/117/16 137/143/18 136/142/16 
f 112/117/16 113/118/34 137/143/18 
f 113/118/34 138/144/19 137/143/18 
f 113/118/34 114/119/19 138/144/19 
f 114/119/19 139/145/20 138/144/19 
f 114/119/19 115/120/20 139/145/20 
f 115/120/20 140/146/21 139/145/20 
f 115/120/20 116/121/35 140/146/21 
f 116/121/35 141/147/23 140/146/21 
f 116/121/35 117/122/23 141/147/23 
f 117/122/23 142/148/24 141/147/23 
f 117/122/23 118/123/24 142/148/24 
f 118/123/24 143/149/25 142/148/24 
f 118/123/24 119/124/25 143/149/25 
f 119/124/25 144/150/26 143/149/25 
f 119/124/25 120/125/26 144/150/26 
f 120/125/26 145/151/27 144/150/26 
f 120/125/26 121/126/27 145/151/27 
f 121/126/27 123/128/2 145/151/27 
f 121/126/27 99/103/2 123/128/2 
s 1
f 146/152/38 123/128/38 122/127/38 
f 146/152/38 122/127/38 124/129/38 
f 146/152/38 124/129/38 125/130/38 
f 146/152/38 125/130/38 126/131/38 
f 146/152/38 126/131/38 127/132/38 
f 146/152/38 127/132/38 128/133/38 
f 146/152/38 128/135/38 129/134/38 
f 146/152/38 129/134/38 130/136/38 
f 146/152/38 130/136/38 131/137/38 
f 146/152/38 131/137/38 132/138/38 
f 146/152/38 132/138/38 133/139/38 
f 146/152/38 133/139/38 134/140/38 
f 146/152/38 134/140/38 135/141/38 
f 146/152/38 135/141/38 136/142/38 
f 146/152/38 136/142/38 137/143/38 
f 146/152/38 137/143/38 138/144/38 
f 146/152/38 138/144/38 139/145/38 
f 146/152/38 139/145/38 140/146/38 
f 146/152/38 140/146/38 141/147/38 
f 146/152/38 141/147/38 142/148/38 
f 146/152/38 142/148/38 143/149/38 
f 146/152/38 143/149/38 144/150/38 
f 146/152/38 144/150/38 145/151/38 
f 146/152/38 145/151/38 123/128/38 
# 288 faces

