# 3ds Max Wavefront OBJ Exporter v0.97b - (c)2007 guruware
# File Created: 01.04.2013 01:32:52

#mtllib F05.mtl

#
# object F05
#

v  -292.860535 -222.931763 25.742920
v  -293.018585 -223.888565 29.888384
v  -292.460846 -222.931763 29.981501
v  -293.565552 -224.780167 29.512762
v  -294.064484 -225.545792 28.880230
v  -294.481354 -226.133286 28.033897
v  -294.787781 -226.502594 27.031437
v  -294.962860 -226.628555 25.941168
v  -294.994659 -226.502594 24.837387
v  -294.881042 -226.133286 23.795319
v  -294.629730 -225.545792 22.885975
v  -294.257843 -224.780167 22.171326
v  -293.790741 -223.888565 21.700077
v  -293.260223 -222.931763 21.504339
v  -292.702484 -221.974960 21.597454
v  -292.155518 -221.083374 21.973078
v  -291.656616 -220.317734 22.605608
v  -291.239716 -219.730240 23.451942
v  -290.933289 -219.360931 24.454401
v  -290.758209 -219.234970 25.544670
v  -290.726410 -219.360931 26.648451
v  -290.840027 -219.730240 27.690521
v  -291.091339 -220.317734 28.599865
v  -291.463226 -221.083359 29.314512
v  -291.930328 -221.974960 29.785763
v  -284.909882 -230.729324 37.753487
v  -283.186890 -227.773529 38.041145
v  -286.599579 -233.483673 36.593098
v  -288.140900 -235.848892 34.639053
v  -289.428711 -237.663803 32.024521
v  -290.375336 -238.804688 28.927681
v  -290.916199 -239.193832 25.559570
v  -291.014496 -238.804688 22.149723
v  -290.663483 -237.663803 18.930515
v  -289.887115 -235.848907 16.121330
v  -288.738251 -233.483673 13.913607
v  -287.295258 -230.729324 12.457802
v  -285.656403 -227.773529 11.853124
v  -283.933411 -224.817734 12.140780
v  -282.243683 -222.063385 13.301167
v  -280.702393 -219.698151 15.255208
v  -279.414551 -217.883255 17.869741
v  -278.467957 -216.742371 20.966583
v  -277.927063 -216.353226 24.334694
v  -277.828796 -216.742371 27.744541
v  -278.179810 -217.883255 30.963749
v  -278.956177 -219.698151 33.772934
v  -280.105011 -222.063370 35.980659
v  -281.548035 -224.817734 37.436462
v  -276.801147 -237.570068 45.618591
v  -273.912903 -232.615295 46.100792
v  -279.633636 -242.187195 43.673431
v  -282.217316 -246.152008 40.397877
v  -284.376099 -249.194321 36.015148
v  -285.962891 -251.106781 30.823923
v  -286.869568 -251.759094 25.177971
v  -287.034302 -251.106781 19.462059
v  -286.445923 -249.194305 14.065711
v  -285.144470 -246.152008 9.356686
v  -283.218689 -242.187195 5.655888
v  -280.799744 -237.570068 3.215527
v  -278.052582 -232.615295 2.201906
v  -275.164337 -227.660507 2.684105
v  -272.331848 -223.043396 4.629257
v  -269.748199 -219.078583 7.904810
v  -267.589386 -216.036270 12.287540
v  -266.002594 -214.123795 17.478767
v  -265.095917 -213.471481 23.124716
v  -264.931152 -214.123795 28.840630
v  -265.519562 -216.036270 34.236977
v  -266.821014 -219.078568 38.946007
v  -268.746796 -223.043381 42.646805
v  -271.165710 -227.660492 45.087166
v  -268.692444 -244.410828 53.483696
v  -264.638947 -237.457062 54.160439
v  -272.667664 -250.890717 50.753769
v  -276.293701 -256.455109 46.156704
v  -279.323486 -260.724823 40.005775
v  -281.550446 -263.408875 32.720165
v  -282.822937 -264.324371 24.796373
v  -283.054138 -263.408875 16.774391
v  -282.228363 -260.724823 9.200907
v  -280.401855 -256.455109 2.592037
v  -277.699097 -250.890717 -2.601831
v  -274.304260 -244.410828 -6.026749
v  -270.448730 -237.457062 -7.449310
v  -266.395233 -230.503296 -6.772572
v  -262.420013 -224.023407 -4.042652
v  -258.793976 -218.459000 0.554411
v  -255.764221 -214.189285 6.705339
v  -253.537231 -211.505219 13.990948
v  -252.264771 -210.589737 21.914740
v  -252.033539 -211.505219 29.936720
v  -252.859329 -214.189270 37.510208
v  -254.685837 -218.458984 44.119080
v  -257.388580 -224.023392 49.312950
v  -260.783417 -230.503265 52.737869
v  -260.583740 -251.251587 61.348801
v  -255.364990 -242.298828 62.220081
v  -265.701721 -259.594238 57.834103
v  -270.370148 -266.758240 51.915527
v  -274.270844 -272.255341 43.996399
v  -277.138031 -275.710999 34.616409
v  -278.776276 -276.889648 24.414776
v  -279.073975 -275.710999 14.086729
v  -278.010803 -272.255341 4.336103
v  -275.659241 -266.758240 -4.172606
v  -272.179504 -259.594238 -10.859550
v  -267.808777 -251.251587 -15.269024
v  -262.844910 -242.298828 -17.100529
v  -257.626160 -233.346069 -16.229248
v  -252.508194 -225.003418 -12.714561
v  -247.839767 -217.839417 -6.795990
v  -243.939056 -212.342285 1.123138
v  -241.071869 -208.886658 10.503131
v  -239.433624 -207.707993 20.704762
v  -239.135925 -208.886642 31.032810
v  -240.199097 -212.342285 40.783436
v  -242.550659 -217.839401 49.292149
v  -246.030380 -225.003387 55.979095
v  -250.401108 -233.346039 60.388573
v  -252.475037 -258.092346 69.213898
v  -246.091034 -247.140594 70.279724
v  -258.735779 -268.297760 64.914444
v  -264.446564 -277.061340 57.674351
v  -269.218231 -283.785858 47.987026
v  -272.725586 -288.013062 36.512650
v  -274.729645 -289.454895 24.033178
v  -275.093781 -288.013092 11.399065
v  -273.793243 -283.785858 -0.528698
v  -270.916595 -277.061340 -10.937244
v  -266.659943 -268.297760 -19.117268
v  -261.313293 -258.092346 -24.511299
v  -255.241074 -247.140594 -26.751743
v  -248.857086 -236.188843 -25.685921
v  -242.596344 -225.983429 -21.386467
v  -236.885559 -217.219849 -14.146385
v  -232.113892 -210.495300 -4.459061
v  -228.606522 -206.268082 7.015316
v  -226.602478 -204.826248 19.494785
v  -226.238312 -206.268082 32.128899
v  -227.538864 -210.495285 44.056664
v  -230.415497 -217.219818 54.465218
v  -234.672165 -225.983398 62.645241
v  -240.018799 -236.188797 68.039276
v  -250.666046 -247.140579 21.763992
# 146 vertices

vn -0.864490 0.495996 0.081521
vn -0.512855 0.334063 0.790811
vn -0.609690 0.167942 0.774644
vn -0.704655 0.013143 0.709428
vn -0.791279 -0.119786 0.599608
vn -0.863657 -0.221786 0.452667
vn -0.916858 -0.285906 0.278619
vn -0.947256 -0.307777 0.089326
vn -0.952780 -0.285906 -0.102313
vn -0.933053 -0.221786 -0.283238
vn -0.889419 -0.119786 -0.441119
vn -0.824852 0.013143 -0.565196
vn -0.743752 0.167942 -0.647015
vn -0.651647 0.334063 -0.680999
vn -0.554812 0.500183 -0.664832
vn -0.459847 0.654982 -0.599616
vn -0.373223 0.787912 -0.489796
vn -0.300845 0.889912 -0.342855
vn -0.247644 0.954032 -0.168807
vn -0.217246 0.975902 0.020486
vn -0.217245 0.975902 0.020486
vn -0.211722 0.954032 0.212125
vn -0.231449 0.889912 0.393050
vn -0.275083 0.787912 0.550930
vn -0.275083 0.787912 0.550931
vn -0.339650 0.654983 0.675008
vn -0.420749 0.500183 0.756827
vn -0.916858 -0.285907 0.278619
vn -0.952780 -0.285907 -0.102313
vn -0.743752 0.167943 -0.647015
vn 0.864490 -0.495996 -0.081521
# 31 vertex normals

vt 0.500000 0.000000 0.000000
vt 0.791667 0.000000 0.087365
vt 0.750000 0.000000 0.087365
vt 0.833333 0.000000 0.087365
vt 0.875000 0.000000 0.087365
vt 0.916667 0.000000 0.087365
vt 0.958333 0.000000 0.087365
vt 1.000000 0.000000 0.087365
vt 0.041667 0.000000 0.087365
vt -0.000000 0.000000 0.087365
vt 0.083333 0.000000 0.087365
vt 0.125000 0.000000 0.087365
vt 0.166667 0.000000 0.087365
vt 0.208333 0.000000 0.087365
vt 0.250000 0.000000 0.087365
vt 0.291667 0.000000 0.087365
vt 0.333333 0.000000 0.087365
vt 0.375000 0.000000 0.087365
vt 0.416667 0.000000 0.087365
vt 0.458333 0.000000 0.087365
vt 0.500000 0.000000 0.087365
vt 0.541667 0.000000 0.087365
vt 0.583333 0.000000 0.087365
vt 0.625000 0.000000 0.087365
vt 0.666667 0.000000 0.087365
vt 0.708333 0.000000 0.087365
vt 0.791667 0.200000 0.269892
vt 0.750000 0.200000 0.269892
vt 0.833333 0.200000 0.269892
vt 0.875000 0.200000 0.269892
vt 0.916667 0.200000 0.269892
vt 0.958333 0.200000 0.269892
vt 1.000000 0.200000 0.269892
vt 0.041667 0.200000 0.269892
vt -0.000000 0.200000 0.269892
vt 0.083333 0.200000 0.269892
vt 0.125000 0.200000 0.269892
vt 0.166667 0.200000 0.269892
vt 0.208333 0.200000 0.269892
vt 0.250000 0.200000 0.269892
vt 0.291667 0.200000 0.269892
vt 0.333333 0.200000 0.269892
vt 0.375000 0.200000 0.269892
vt 0.416667 0.200000 0.269892
vt 0.458333 0.200000 0.269892
vt 0.500000 0.200000 0.269892
vt 0.541667 0.200000 0.269892
vt 0.583333 0.200000 0.269892
vt 0.625000 0.200000 0.269892
vt 0.666667 0.200000 0.269892
vt 0.708333 0.200000 0.269892
vt 0.791667 0.400000 0.452419
vt 0.750000 0.400000 0.452419
vt 0.833333 0.400000 0.452419
vt 0.875000 0.400000 0.452419
vt 0.916667 0.400000 0.452419
vt 0.958333 0.400000 0.452419
vt 1.000000 0.400000 0.452419
vt 0.041667 0.400000 0.452419
vt -0.000000 0.400000 0.452419
vt 0.083333 0.400000 0.452419
vt 0.125000 0.400000 0.452419
vt 0.166667 0.400000 0.452419
vt 0.208333 0.400000 0.452419
vt 0.250000 0.400000 0.452419
vt 0.291667 0.400000 0.452419
vt 0.333333 0.400000 0.452419
vt 0.375000 0.400000 0.452419
vt 0.416667 0.400000 0.452419
vt 0.458333 0.400000 0.452419
vt 0.500000 0.400000 0.452419
vt 0.541667 0.400000 0.452419
vt 0.583333 0.400000 0.452419
vt 0.625000 0.400000 0.452419
vt 0.666667 0.400000 0.452419
vt 0.708333 0.400000 0.452419
vt 0.791667 0.600000 0.634946
vt 0.750000 0.600000 0.634946
vt 0.833333 0.600000 0.634946
vt 0.875000 0.600000 0.634946
vt 0.916667 0.600000 0.634946
vt 0.958333 0.600000 0.634946
vt 1.000000 0.600000 0.634946
vt 0.041667 0.600000 0.634946
vt 0.000000 0.600000 0.634946
vt 0.083333 0.600000 0.634946
vt 0.125000 0.600000 0.634946
vt 0.166667 0.600000 0.634946
vt 0.208333 0.600000 0.634946
vt 0.250000 0.600000 0.634946
vt 0.291667 0.600000 0.634946
vt 0.333333 0.600000 0.634946
vt 0.375000 0.600000 0.634946
vt 0.416667 0.600000 0.634946
vt 0.458333 0.600000 0.634946
vt 0.500000 0.600000 0.634946
vt 0.541667 0.600000 0.634946
vt 0.583333 0.600000 0.634946
vt 0.625000 0.600000 0.634946
vt 0.666667 0.600000 0.634946
vt 0.708333 0.600000 0.634946
vt 0.791667 0.800000 0.817473
vt 0.750000 0.800000 0.817473
vt 0.833333 0.800000 0.817473
vt 0.875000 0.800000 0.817473
vt 0.916667 0.800000 0.817473
vt 0.958333 0.800000 0.817473
vt 1.000000 0.800000 0.817473
vt 0.041667 0.800000 0.817473
vt -0.000000 0.800000 0.817473
vt 0.083333 0.800000 0.817473
vt 0.125000 0.800000 0.817473
vt 0.166667 0.800000 0.817473
vt 0.208333 0.800000 0.817473
vt 0.250000 0.800000 0.817473
vt 0.291667 0.800000 0.817473
vt 0.333333 0.800000 0.817473
vt 0.375000 0.800000 0.817473
vt 0.416667 0.800000 0.817473
vt 0.458333 0.800000 0.817473
vt 0.500000 0.800000 0.817473
vt 0.541667 0.800000 0.817473
vt 0.583333 0.800000 0.817473
vt 0.625000 0.800000 0.817473
vt 0.666667 0.800000 0.817473
vt 0.708333 0.800000 0.817473
vt 0.791667 1.000000 1.000000
vt 0.750000 1.000000 1.000000
vt 0.833333 1.000000 1.000000
vt 0.875000 1.000000 1.000000
vt 0.916667 1.000000 1.000000
vt 0.958333 1.000000 1.000000
vt 1.000000 1.000000 1.000000
vt 0.041667 1.000000 1.000000
vt -0.000000 1.000000 1.000000
vt 0.083333 1.000000 1.000000
vt 0.125000 1.000000 1.000000
vt 0.166667 1.000000 1.000000
vt 0.208333 1.000000 1.000000
vt 0.250000 1.000000 1.000000
vt 0.291667 1.000000 1.000000
vt 0.333333 1.000000 1.000000
vt 0.375000 1.000000 1.000000
vt 0.416667 1.000000 1.000000
vt 0.458333 1.000000 1.000000
vt 0.500000 1.000000 1.000000
vt 0.541667 1.000000 1.000000
vt 0.583333 1.000000 1.000000
vt 0.625000 1.000000 1.000000
vt 0.666667 1.000000 1.000000
vt 0.708333 1.000000 1.000000
vt 0.500000 1.000000 0.000000
# 152 texture coords

g F05
#usemtl 17___Default
s 1
f 1/1/1 2/2/1 3/3/1 
f 1/1/1 4/4/1 2/2/1 
f 1/1/1 5/5/1 4/4/1 
f 1/1/1 6/6/1 5/5/1 
f 1/1/1 7/7/1 6/6/1 
f 1/1/1 8/8/1 7/7/1 
f 1/1/1 9/9/1 8/10/1 
f 1/1/1 10/11/1 9/9/1 
f 1/1/1 11/12/1 10/11/1 
f 1/1/1 12/13/1 11/12/1 
f 1/1/1 13/14/1 12/13/1 
f 1/1/1 14/15/1 13/14/1 
f 1/1/1 15/16/1 14/15/1 
f 1/1/1 16/17/1 15/16/1 
f 1/1/1 17/18/1 16/17/1 
f 1/1/1 18/19/1 17/18/1 
f 1/1/1 19/20/1 18/19/1 
f 1/1/1 20/21/1 19/20/1 
f 1/1/1 21/22/1 20/21/1 
f 1/1/1 22/23/1 21/22/1 
f 1/1/1 23/24/1 22/23/1 
f 1/1/1 24/25/1 23/24/1 
f 1/1/1 25/26/1 24/25/1 
f 1/1/1 3/3/1 25/26/1 
s 8
f 3/3/2 26/27/3 27/28/2 
f 3/3/2 2/2/3 26/27/3 
f 2/2/3 28/29/4 26/27/3 
f 2/2/3 4/4/4 28/29/4 
f 4/4/4 29/30/5 28/29/4 
f 4/4/4 5/5/5 29/30/5 
f 5/5/5 30/31/6 29/30/5 
f 5/5/5 6/6/6 30/31/6 
f 6/6/6 31/32/7 30/31/6 
f 6/6/6 7/7/7 31/32/7 
f 7/7/7 32/33/8 31/32/7 
f 7/7/7 8/8/8 32/33/8 
f 8/10/8 33/34/9 32/35/8 
f 8/10/8 9/9/9 33/34/9 
f 9/9/9 34/36/10 33/34/9 
f 9/9/9 10/11/10 34/36/10 
f 10/11/10 35/37/11 34/36/10 
f 10/11/10 11/12/11 35/37/11 
f 11/12/11 36/38/12 35/37/11 
f 11/12/11 12/13/12 36/38/12 
f 12/13/12 37/39/13 36/38/12 
f 12/13/12 13/14/13 37/39/13 
f 13/14/13 38/40/14 37/39/13 
f 13/14/13 14/15/14 38/40/14 
f 14/15/14 39/41/15 38/40/14 
f 14/15/14 15/16/15 39/41/15 
f 15/16/15 40/42/16 39/41/15 
f 15/16/15 16/17/16 40/42/16 
f 16/17/16 41/43/17 40/42/16 
f 16/17/16 17/18/17 41/43/17 
f 17/18/17 42/44/18 41/43/17 
f 17/18/17 18/19/18 42/44/18 
f 18/19/18 43/45/19 42/44/18 
f 18/19/18 19/20/19 43/45/19 
f 19/20/19 44/46/20 43/45/19 
f 19/20/19 20/21/21 44/46/20 
f 20/21/21 45/47/22 44/46/20 
f 20/21/21 21/22/22 45/47/22 
f 21/22/22 46/48/23 45/47/22 
f 21/22/22 22/23/23 46/48/23 
f 22/23/23 47/49/24 46/48/23 
f 22/23/23 23/24/25 47/49/24 
f 23/24/25 48/50/26 47/49/24 
f 23/24/25 24/25/26 48/50/26 
f 24/25/26 49/51/27 48/50/26 
f 24/25/26 25/26/27 49/51/27 
f 25/26/27 27/28/2 49/51/27 
f 25/26/27 3/3/2 27/28/2 
f 27/28/2 50/52/3 51/53/2 
f 27/28/2 26/27/3 50/52/3 
f 26/27/3 52/54/4 50/52/3 
f 26/27/3 28/29/4 52/54/4 
f 28/29/4 53/55/5 52/54/4 
f 28/29/4 29/30/5 53/55/5 
f 29/30/5 54/56/6 53/55/5 
f 29/30/5 30/31/6 54/56/6 
f 30/31/6 55/57/7 54/56/6 
f 30/31/6 31/32/7 55/57/7 
f 31/32/7 56/58/8 55/57/7 
f 31/32/7 32/33/8 56/58/8 
f 32/35/8 57/59/9 56/60/8 
f 32/35/8 33/34/9 57/59/9 
f 33/34/9 58/61/10 57/59/9 
f 33/34/9 34/36/10 58/61/10 
f 34/36/10 59/62/11 58/61/10 
f 34/36/10 35/37/11 59/62/11 
f 35/37/11 60/63/12 59/62/11 
f 35/37/11 36/38/12 60/63/12 
f 36/38/12 61/64/13 60/63/12 
f 36/38/12 37/39/13 61/64/13 
f 37/39/13 62/65/14 61/64/13 
f 37/39/13 38/40/14 62/65/14 
f 38/40/14 63/66/15 62/65/14 
f 38/40/14 39/41/15 63/66/15 
f 39/41/15 64/67/16 63/66/15 
f 39/41/15 40/42/16 64/67/16 
f 40/42/16 65/68/17 64/67/16 
f 40/42/16 41/43/17 65/68/17 
f 41/43/17 66/69/18 65/68/17 
f 41/43/17 42/44/18 66/69/18 
f 42/44/18 67/70/19 66/69/18 
f 42/44/18 43/45/19 67/70/19 
f 43/45/19 68/71/20 67/70/19 
f 43/45/19 44/46/20 68/71/20 
f 44/46/20 69/72/22 68/71/20 
f 44/46/20 45/47/22 69/72/22 
f 45/47/22 70/73/23 69/72/22 
f 45/47/22 46/48/23 70/73/23 
f 46/48/23 71/74/24 70/73/23 
f 46/48/23 47/49/24 71/74/24 
f 47/49/24 72/75/26 71/74/24 
f 47/49/24 48/50/26 72/75/26 
f 48/50/26 73/76/27 72/75/26 
f 48/50/26 49/51/27 73/76/27 
f 49/51/27 51/53/2 73/76/27 
f 49/51/27 27/28/2 51/53/2 
f 51/53/2 74/77/3 75/78/2 
f 51/53/2 50/52/3 74/77/3 
f 50/52/3 76/79/4 74/77/3 
f 50/52/3 52/54/4 76/79/4 
f 52/54/4 77/80/5 76/79/4 
f 52/54/4 53/55/5 77/80/5 
f 53/55/5 78/81/6 77/80/5 
f 53/55/5 54/56/6 78/81/6 
f 54/56/6 79/82/7 78/81/6 
f 54/56/6 55/57/7 79/82/7 
f 55/57/7 80/83/8 79/82/7 
f 55/57/7 56/58/8 80/83/8 
f 56/60/8 81/84/9 80/85/8 
f 56/60/8 57/59/9 81/84/9 
f 57/59/9 82/86/10 81/84/9 
f 57/59/9 58/61/10 82/86/10 
f 58/61/10 83/87/11 82/86/10 
f 58/61/10 59/62/11 83/87/11 
f 59/62/11 84/88/12 83/87/11 
f 59/62/11 60/63/12 84/88/12 
f 60/63/12 85/89/13 84/88/12 
f 60/63/12 61/64/13 85/89/13 
f 61/64/13 86/90/14 85/89/13 
f 61/64/13 62/65/14 86/90/14 
f 62/65/14 87/91/15 86/90/14 
f 62/65/14 63/66/15 87/91/15 
f 63/66/15 88/92/16 87/91/15 
f 63/66/15 64/67/16 88/92/16 
f 64/67/16 89/93/17 88/92/16 
f 64/67/16 65/68/17 89/93/17 
f 65/68/17 90/94/18 89/93/17 
f 65/68/17 66/69/18 90/94/18 
f 66/69/18 91/95/19 90/94/18 
f 66/69/18 67/70/19 91/95/19 
f 67/70/19 92/96/20 91/95/19 
f 67/70/19 68/71/20 92/96/20 
f 68/71/20 93/97/22 92/96/20 
f 68/71/20 69/72/22 93/97/22 
f 69/72/22 94/98/23 93/97/22 
f 69/72/22 70/73/23 94/98/23 
f 70/73/23 95/99/25 94/98/23 
f 70/73/23 71/74/24 95/99/25 
f 71/74/24 96/100/26 95/99/25 
f 71/74/24 72/75/26 96/100/26 
f 72/75/26 97/101/27 96/100/26 
f 72/75/26 73/76/27 97/101/27 
f 73/76/27 75/78/2 97/101/27 
f 73/76/27 51/53/2 75/78/2 
f 75/78/2 98/102/3 99/103/2 
f 75/78/2 74/77/3 98/102/3 
f 74/77/3 100/104/4 98/102/3 
f 74/77/3 76/79/4 100/104/4 
f 76/79/4 101/105/5 100/104/4 
f 76/79/4 77/80/5 101/105/5 
f 77/80/5 102/106/6 101/105/5 
f 77/80/5 78/81/6 102/106/6 
f 78/81/6 103/107/7 102/106/6 
f 78/81/6 79/82/7 103/107/7 
f 79/82/7 104/108/8 103/107/7 
f 79/82/7 80/83/8 104/108/8 
f 80/85/8 105/109/9 104/110/8 
f 80/85/8 81/84/9 105/109/9 
f 81/84/9 106/111/10 105/109/9 
f 81/84/9 82/86/10 106/111/10 
f 82/86/10 107/112/11 106/111/10 
f 82/86/10 83/87/11 107/112/11 
f 83/87/11 108/113/12 107/112/11 
f 83/87/11 84/88/12 108/113/12 
f 84/88/12 109/114/13 108/113/12 
f 84/88/12 85/89/13 109/114/13 
f 85/89/13 110/115/14 109/114/13 
f 85/89/13 86/90/14 110/115/14 
f 86/90/14 111/116/15 110/115/14 
f 86/90/14 87/91/15 111/116/15 
f 87/91/15 112/117/16 111/116/15 
f 87/91/15 88/92/16 112/117/16 
f 88/92/16 113/118/17 112/117/16 
f 88/92/16 89/93/17 113/118/17 
f 89/93/17 114/119/18 113/118/17 
f 89/93/17 90/94/18 114/119/18 
f 90/94/18 115/120/19 114/119/18 
f 90/94/18 91/95/19 115/120/19 
f 91/95/19 116/121/20 115/120/19 
f 91/95/19 92/96/20 116/121/20 
f 92/96/20 117/122/22 116/121/20 
f 92/96/20 93/97/22 117/122/22 
f 93/97/22 118/123/23 117/122/22 
f 93/97/22 94/98/23 118/123/23 
f 94/98/23 119/124/24 118/123/23 
f 94/98/23 95/99/25 119/124/24 
f 95/99/25 120/125/26 119/124/24 
f 95/99/25 96/100/26 120/125/26 
f 96/100/26 121/126/27 120/125/26 
f 96/100/26 97/101/27 121/126/27 
f 97/101/27 99/103/2 121/126/27 
f 97/101/27 75/78/2 99/103/2 
f 99/103/2 122/127/3 123/128/2 
f 99/103/2 98/102/3 122/127/3 
f 98/102/3 124/129/4 122/127/3 
f 98/102/3 100/104/4 124/129/4 
f 100/104/4 125/130/5 124/129/4 
f 100/104/4 101/105/5 125/130/5 
f 101/105/5 126/131/6 125/130/5 
f 101/105/5 102/106/6 126/131/6 
f 102/106/6 127/132/28 126/131/6 
f 102/106/6 103/107/7 127/132/28 
f 103/107/7 128/133/8 127/132/28 
f 103/107/7 104/108/8 128/133/8 
f 104/110/8 129/134/29 128/135/8 
f 104/110/8 105/109/9 129/134/29 
f 105/109/9 130/136/10 129/134/29 
f 105/109/9 106/111/10 130/136/10 
f 106/111/10 131/137/11 130/136/10 
f 106/111/10 107/112/11 131/137/11 
f 107/112/11 132/138/12 131/137/11 
f 107/112/11 108/113/12 132/138/12 
f 108/113/12 133/139/30 132/138/12 
f 108/113/12 109/114/13 133/139/30 
f 109/114/13 134/140/14 133/139/30 
f 109/114/13 110/115/14 134/140/14 
f 110/115/14 135/141/15 134/140/14 
f 110/115/14 111/116/15 135/141/15 
f 111/116/15 136/142/16 135/141/15 
f 111/116/15 112/117/16 136/142/16 
f 112/117/16 137/143/17 136/142/16 
f 112/117/16 113/118/17 137/143/17 
f 113/118/17 138/144/18 137/143/17 
f 113/118/17 114/119/18 138/144/18 
f 114/119/18 139/145/19 138/144/18 
f 114/119/18 115/120/19 139/145/19 
f 115/120/19 140/146/21 139/145/19 
f 115/120/19 116/121/20 140/146/21 
f 116/121/20 141/147/22 140/146/21 
f 116/121/20 117/122/22 141/147/22 
f 117/122/22 142/148/23 141/147/22 
f 117/122/22 118/123/23 142/148/23 
f 118/123/23 143/149/24 142/148/23 
f 118/123/23 119/124/24 143/149/24 
f 119/124/24 144/150/26 143/149/24 
f 119/124/24 120/125/26 144/150/26 
f 120/125/26 145/151/27 144/150/26 
f 120/125/26 121/126/27 145/151/27 
f 121/126/27 123/128/2 145/151/27 
f 121/126/27 99/103/2 123/128/2 
s 1
f 146/152/31 123/128/31 122/127/31 
f 146/152/31 122/127/31 124/129/31 
f 146/152/31 124/129/31 125/130/31 
f 146/152/31 125/130/31 126/131/31 
f 146/152/31 126/131/31 127/132/31 
f 146/152/31 127/132/31 128/133/31 
f 146/152/31 128/135/31 129/134/31 
f 146/152/31 129/134/31 130/136/31 
f 146/152/31 130/136/31 131/137/31 
f 146/152/31 131/137/31 132/138/31 
f 146/152/31 132/138/31 133/139/31 
f 146/152/31 133/139/31 134/140/31 
f 146/152/31 134/140/31 135/141/31 
f 146/152/31 135/141/31 136/142/31 
f 146/152/31 136/142/31 137/143/31 
f 146/152/31 137/143/31 138/144/31 
f 146/152/31 138/144/31 139/145/31 
f 146/152/31 139/145/31 140/146/31 
f 146/152/31 140/146/31 141/147/31 
f 146/152/31 141/147/31 142/148/31 
f 146/152/31 142/148/31 143/149/31 
f 146/152/31 143/149/31 144/150/31 
f 146/152/31 144/150/31 145/151/31 
f 146/152/31 145/151/31 123/128/31 
# 288 faces

