# 3ds Max Wavefront OBJ Exporter v0.97b - (c)2007 guruware
# File Created: 01.04.2013 01:33:52

#mtllib F10.mtl

#
# object F10
#

v  87.737854 -214.971436 -273.589355
v  83.967842 -215.839798 -275.600433
v  83.599739 -214.971436 -274.963196
v  84.592857 -216.648987 -276.100586
v  85.432205 -217.343857 -276.429626
v  86.428680 -217.877045 -276.565094
v  87.514374 -218.212219 -276.497772
v  88.615295 -218.326538 -276.232239
v  89.656418 -218.212219 -275.786621
v  90.566795 -217.877045 -275.191223
v  91.284386 -217.343857 -274.486694
v  91.760284 -216.648987 -273.721008
v  91.962067 -215.839798 -272.946350
v  91.875969 -214.971436 -272.215515
v  91.507866 -214.103073 -271.578278
v  90.882851 -213.293884 -271.078125
v  90.043503 -212.599014 -270.749084
v  89.047028 -212.065826 -270.613617
v  87.961334 -211.730652 -270.680939
v  86.860420 -211.616333 -270.946472
v  85.819290 -211.730652 -271.392090
v  84.908913 -212.065826 -271.987488
v  84.191322 -212.599014 -272.692017
v  83.715424 -213.293884 -273.457703
v  83.513641 -214.103073 -274.232361
v  73.843094 -223.780975 -272.728363
v  72.714249 -221.117996 -270.774231
v  75.759827 -226.262497 -274.262177
v  78.333817 -228.393402 -275.271210
v  81.389664 -230.028519 -275.686646
v  84.719116 -231.056396 -275.480194
v  88.095268 -231.406982 -274.665924
v  91.288048 -231.056396 -273.299316
v  94.079872 -230.028519 -271.473511
v  96.280479 -228.393402 -269.312927
v  97.739906 -226.262497 -266.964783
v  98.358696 -223.780991 -264.589172
v  98.094673 -221.117996 -262.347931
v  96.965836 -218.455017 -260.393799
v  95.049103 -215.973511 -258.859955
v  92.475113 -213.842590 -257.850922
v  89.419258 -212.207474 -257.435486
v  86.089813 -211.179611 -257.641937
v  82.713654 -210.829010 -258.456238
v  79.520874 -211.179611 -259.822845
v  76.729050 -212.207474 -261.648651
v  74.528442 -213.842590 -263.809235
v  73.069016 -215.973495 -266.157349
v  72.450226 -218.455002 -268.532959
v  63.718346 -231.722168 -269.856262
v  61.828762 -227.264557 -266.585236
v  66.926781 -235.875992 -272.423798
v  71.235428 -239.442963 -274.112793
v  76.350655 -242.179993 -274.808197
v  81.923859 -243.900574 -274.462616
v  87.575249 -244.487427 -273.099579
v  92.919685 -243.900574 -270.812012
v  97.592957 -242.179993 -267.755768
v  101.276581 -239.442963 -264.139130
v  103.719536 -235.875992 -260.208588
v  104.755325 -231.722168 -256.231995
v  104.313377 -227.264572 -252.480347
v  102.423798 -222.806961 -249.209290
v  99.215363 -218.653137 -246.641785
v  94.906715 -215.086166 -244.952774
v  89.791489 -212.349136 -244.257355
v  84.218285 -210.628555 -244.602951
v  78.566895 -210.041702 -245.965973
v  73.222458 -210.628555 -248.253555
v  68.549187 -212.349121 -251.309814
v  64.865555 -215.086151 -254.926437
v  62.422604 -218.653122 -258.856964
v  61.386810 -222.806946 -262.833557
v  53.593597 -239.663345 -266.984192
v  50.943272 -233.411133 -262.396240
v  58.093742 -245.489502 -270.585388
v  64.137039 -250.492523 -272.954376
v  71.311638 -254.331482 -273.929749
v  79.128601 -256.744751 -273.445038
v  87.055229 -257.567871 -271.533264
v  94.551315 -256.744751 -268.324707
v  101.106033 -254.331482 -264.038025
v  106.272675 -250.492523 -258.965332
v  109.699158 -245.489502 -253.452377
v  111.151962 -239.663361 -247.874817
v  110.532074 -233.411133 -242.612762
v  107.881760 -227.158920 -238.024811
v  103.381615 -221.332764 -234.423615
v  97.338326 -216.329742 -232.054611
v  90.163727 -212.490784 -231.079224
v  82.346756 -210.077515 -231.563950
v  74.420135 -209.254395 -233.475739
v  66.924042 -210.077515 -236.684296
v  60.369324 -212.490768 -240.970978
v  55.202675 -216.329727 -246.043640
v  51.776196 -221.332748 -251.556610
v  50.323391 -227.158890 -257.134186
v  43.468849 -247.604523 -264.112122
v  40.057785 -239.557693 -258.207275
v  49.260708 -255.102997 -268.746979
v  57.038647 -261.542084 -271.795990
v  66.272629 -266.482971 -273.051331
v  76.333351 -269.588928 -272.427460
v  86.535202 -270.648315 -269.966949
v  96.182953 -269.588928 -265.837402
v  104.619110 -266.482971 -260.320282
v  111.268776 -261.542084 -253.791565
v  115.678780 -255.102997 -246.696167
v  117.548592 -247.604553 -239.517639
v  116.750778 -239.557709 -232.745178
v  113.339722 -231.510864 -226.840302
v  107.547867 -224.012390 -222.205444
v  99.769936 -217.573318 -219.156448
v  90.535957 -212.632431 -217.901093
v  80.475227 -209.526459 -218.524948
v  70.273376 -208.467072 -220.985489
v  60.625626 -209.526459 -225.115021
v  52.189465 -212.632416 -230.632141
v  45.539795 -217.573288 -237.160858
v  41.129784 -224.012360 -244.256241
v  39.259972 -231.510818 -251.434784
v  33.344101 -255.545715 -261.240051
v  29.172298 -245.704254 -254.018280
v  40.427670 -264.716492 -266.908569
v  49.940258 -272.591614 -270.637573
v  61.233608 -278.634430 -272.172882
v  73.538094 -282.433105 -271.409912
v  86.015182 -283.728760 -268.400604
v  97.814590 -282.433105 -263.350098
v  108.132195 -278.634430 -256.602539
v  116.264877 -272.591644 -248.617783
v  121.658409 -264.716492 -239.939957
v  123.945221 -255.545731 -231.160461
v  122.969482 -245.704269 -222.877594
v  118.797684 -235.862808 -215.655823
v  111.714127 -226.692017 -209.987274
v  102.201546 -218.816895 -206.258286
v  90.908188 -212.774078 -204.722961
v  78.603706 -208.975418 -205.485962
v  66.126610 -207.679764 -208.495239
v  54.327209 -208.975418 -213.545746
v  44.009598 -212.774063 -220.293304
v  35.876911 -218.816864 -228.278061
v  30.483376 -226.691986 -236.955872
v  28.196556 -235.862762 -245.735382
v  76.070892 -245.704254 -238.447922
# 146 vertices

vn 0.242455 0.638669 -0.730286
vn -0.527073 0.436518 -0.729141
vn -0.465447 0.291139 -0.835821
vn -0.465447 0.291140 -0.835821
vn -0.360809 0.155669 -0.919557
vn -0.220289 0.039337 -0.974641
vn -0.053463 -0.049927 -0.997321
vn 0.128299 -0.106041 -0.986050
vn 0.312610 -0.125180 -0.941597
vn 0.486911 -0.106041 -0.866991
vn 0.639323 -0.049927 -0.767316
vn 0.759459 0.039337 -0.649365
vn 0.839132 0.155669 -0.521176
vn 0.872913 0.291139 -0.391485
vn 0.858499 0.436517 -0.269131
vn 0.858500 0.436517 -0.269131
vn 0.796874 0.581895 -0.162451
vn 0.692235 0.717366 -0.078715
vn 0.551715 0.833698 -0.023630
vn 0.384890 0.922962 -0.000951
vn 0.203128 0.979076 -0.012222
vn 0.018816 0.998215 -0.056675
vn 0.018817 0.998215 -0.056675
vn -0.155484 0.979076 -0.131281
vn -0.307896 0.922962 -0.230956
vn -0.428032 0.833698 -0.348907
vn -0.507706 0.717367 -0.477095
vn -0.541487 0.581896 -0.606786
vn 0.551715 0.833698 -0.023631
vn -0.428032 0.833698 -0.348906
vn -0.541486 0.581896 -0.606786
vn 0.203128 0.979076 -0.012221
vn -0.242455 -0.638669 0.730286
# 33 vertex normals

vt 0.500000 0.000000 0.000000
vt 0.791667 0.000000 0.088235
vt 0.750000 0.000000 0.088235
vt 0.833333 0.000000 0.088235
vt 0.875000 0.000000 0.088235
vt 0.916667 0.000000 0.088235
vt 0.958333 0.000000 0.088235
vt 1.000000 0.000000 0.088235
vt 0.041667 0.000000 0.088235
vt -0.000000 0.000000 0.088235
vt 0.083333 0.000000 0.088235
vt 0.125000 0.000000 0.088235
vt 0.166667 0.000000 0.088235
vt 0.208333 0.000000 0.088235
vt 0.250000 0.000000 0.088235
vt 0.291667 0.000000 0.088235
vt 0.333333 0.000000 0.088235
vt 0.375000 0.000000 0.088235
vt 0.416667 0.000000 0.088235
vt 0.458333 0.000000 0.088235
vt 0.500000 0.000000 0.088235
vt 0.541667 0.000000 0.088235
vt 0.583333 0.000000 0.088235
vt 0.625000 0.000000 0.088235
vt 0.666667 0.000000 0.088235
vt 0.708333 0.000000 0.088235
vt 0.791667 0.200000 0.270588
vt 0.750000 0.200000 0.270588
vt 0.833333 0.200000 0.270588
vt 0.875000 0.200000 0.270588
vt 0.916667 0.200000 0.270588
vt 0.958333 0.200000 0.270588
vt 1.000000 0.200000 0.270588
vt 0.041667 0.200000 0.270588
vt -0.000000 0.200000 0.270588
vt 0.083333 0.200000 0.270588
vt 0.125000 0.200000 0.270588
vt 0.166667 0.200000 0.270588
vt 0.208333 0.200000 0.270588
vt 0.250000 0.200000 0.270588
vt 0.291667 0.200000 0.270588
vt 0.333333 0.200000 0.270588
vt 0.375000 0.200000 0.270588
vt 0.416667 0.200000 0.270588
vt 0.458333 0.200000 0.270588
vt 0.500000 0.200000 0.270588
vt 0.541667 0.200000 0.270588
vt 0.583333 0.200000 0.270588
vt 0.625000 0.200000 0.270588
vt 0.666667 0.200000 0.270588
vt 0.708333 0.200000 0.270588
vt 0.791667 0.400000 0.452941
vt 0.750000 0.400000 0.452941
vt 0.833333 0.400000 0.452941
vt 0.875000 0.400000 0.452941
vt 0.916667 0.400000 0.452941
vt 0.958333 0.400000 0.452941
vt 1.000000 0.400000 0.452941
vt 0.041667 0.400000 0.452941
vt -0.000000 0.400000 0.452941
vt 0.083333 0.400000 0.452941
vt 0.125000 0.400000 0.452941
vt 0.166667 0.400000 0.452941
vt 0.208333 0.400000 0.452941
vt 0.250000 0.400000 0.452941
vt 0.291667 0.400000 0.452941
vt 0.333333 0.400000 0.452941
vt 0.375000 0.400000 0.452941
vt 0.416667 0.400000 0.452941
vt 0.458333 0.400000 0.452941
vt 0.500000 0.400000 0.452941
vt 0.541667 0.400000 0.452941
vt 0.583333 0.400000 0.452941
vt 0.625000 0.400000 0.452941
vt 0.666667 0.400000 0.452941
vt 0.708333 0.400000 0.452941
vt 0.791667 0.600000 0.635294
vt 0.750000 0.600000 0.635294
vt 0.833333 0.600000 0.635294
vt 0.875000 0.600000 0.635294
vt 0.916667 0.600000 0.635294
vt 0.958333 0.600000 0.635294
vt 1.000000 0.600000 0.635294
vt 0.041667 0.600000 0.635294
vt -0.000000 0.600000 0.635294
vt 0.083333 0.600000 0.635294
vt 0.125000 0.600000 0.635294
vt 0.166667 0.600000 0.635294
vt 0.208333 0.600000 0.635294
vt 0.250000 0.600000 0.635294
vt 0.291667 0.600000 0.635294
vt 0.333333 0.600000 0.635294
vt 0.375000 0.600000 0.635294
vt 0.416667 0.600000 0.635294
vt 0.458333 0.600000 0.635294
vt 0.500000 0.600000 0.635294
vt 0.541667 0.600000 0.635294
vt 0.583333 0.600000 0.635294
vt 0.625000 0.600000 0.635294
vt 0.666667 0.600000 0.635294
vt 0.708333 0.600000 0.635294
vt 0.791667 0.800000 0.817647
vt 0.750000 0.800000 0.817647
vt 0.833333 0.800000 0.817647
vt 0.875000 0.800000 0.817647
vt 0.916667 0.800000 0.817647
vt 0.958333 0.800000 0.817647
vt 1.000000 0.800000 0.817647
vt 0.041667 0.800000 0.817647
vt -0.000000 0.800000 0.817647
vt 0.083333 0.800000 0.817647
vt 0.125000 0.800000 0.817647
vt 0.166667 0.800000 0.817647
vt 0.208333 0.800000 0.817647
vt 0.250000 0.800000 0.817647
vt 0.291667 0.800000 0.817647
vt 0.333333 0.800000 0.817647
vt 0.375000 0.800000 0.817647
vt 0.416667 0.800000 0.817647
vt 0.458333 0.800000 0.817647
vt 0.500000 0.800000 0.817647
vt 0.541667 0.800000 0.817647
vt 0.583333 0.800000 0.817647
vt 0.625000 0.800000 0.817647
vt 0.666667 0.800000 0.817647
vt 0.708333 0.800000 0.817647
vt 0.791667 1.000000 1.000000
vt 0.750000 1.000000 1.000000
vt 0.833333 1.000000 1.000000
vt 0.875000 1.000000 1.000000
vt 0.916667 1.000000 1.000000
vt 0.958333 1.000000 1.000000
vt 1.000000 1.000000 1.000000
vt 0.041667 1.000000 1.000000
vt -0.000000 1.000000 1.000000
vt 0.083333 1.000000 1.000000
vt 0.125000 1.000000 1.000000
vt 0.166667 1.000000 1.000000
vt 0.208333 1.000000 1.000000
vt 0.250000 1.000000 1.000000
vt 0.291667 1.000000 1.000000
vt 0.333333 1.000000 1.000000
vt 0.375000 1.000000 1.000000
vt 0.416667 1.000000 1.000000
vt 0.458333 1.000000 1.000000
vt 0.500000 1.000000 1.000000
vt 0.541667 1.000000 1.000000
vt 0.583333 1.000000 1.000000
vt 0.625000 1.000000 1.000000
vt 0.666667 1.000000 1.000000
vt 0.708333 1.000000 1.000000
vt 0.500000 1.000000 0.000000
# 152 texture coords

g F10
usemtl 17___Default
s 1
f 1/1/1 2/2/1 3/3/1 
f 1/1/1 4/4/1 2/2/1 
f 1/1/1 5/5/1 4/4/1 
f 1/1/1 6/6/1 5/5/1 
f 1/1/1 7/7/1 6/6/1 
f 1/1/1 8/8/1 7/7/1 
f 1/1/1 9/9/1 8/10/1 
f 1/1/1 10/11/1 9/9/1 
f 1/1/1 11/12/1 10/11/1 
f 1/1/1 12/13/1 11/12/1 
f 1/1/1 13/14/1 12/13/1 
f 1/1/1 14/15/1 13/14/1 
f 1/1/1 15/16/1 14/15/1 
f 1/1/1 16/17/1 15/16/1 
f 1/1/1 17/18/1 16/17/1 
f 1/1/1 18/19/1 17/18/1 
f 1/1/1 19/20/1 18/19/1 
f 1/1/1 20/21/1 19/20/1 
f 1/1/1 21/22/1 20/21/1 
f 1/1/1 22/23/1 21/22/1 
f 1/1/1 23/24/1 22/23/1 
f 1/1/1 24/25/1 23/24/1 
f 1/1/1 25/26/1 24/25/1 
f 1/1/1 3/3/1 25/26/1 
s 8
f 3/3/2 26/27/3 27/28/2 
f 3/3/2 2/2/4 26/27/3 
f 2/2/4 28/29/5 26/27/3 
f 2/2/4 4/4/5 28/29/5 
f 4/4/5 29/30/6 28/29/5 
f 4/4/5 5/5/6 29/30/6 
f 5/5/6 30/31/7 29/30/6 
f 5/5/6 6/6/7 30/31/7 
f 6/6/7 31/32/8 30/31/7 
f 6/6/7 7/7/8 31/32/8 
f 7/7/8 32/33/9 31/32/8 
f 7/7/8 8/8/9 32/33/9 
f 8/10/9 33/34/10 32/35/9 
f 8/10/9 9/9/10 33/34/10 
f 9/9/10 34/36/11 33/34/10 
f 9/9/10 10/11/11 34/36/11 
f 10/11/11 35/37/12 34/36/11 
f 10/11/11 11/12/12 35/37/12 
f 11/12/12 36/38/13 35/37/12 
f 11/12/12 12/13/13 36/38/13 
f 12/13/13 37/39/14 36/38/13 
f 12/13/13 13/14/14 37/39/14 
f 13/14/14 38/40/15 37/39/14 
f 13/14/14 14/15/16 38/40/15 
f 14/15/16 39/41/17 38/40/15 
f 14/15/16 15/16/17 39/41/17 
f 15/16/17 40/42/18 39/41/17 
f 15/16/17 16/17/18 40/42/18 
f 16/17/18 41/43/19 40/42/18 
f 16/17/18 17/18/19 41/43/19 
f 17/18/19 42/44/20 41/43/19 
f 17/18/19 18/19/20 42/44/20 
f 18/19/20 43/45/21 42/44/20 
f 18/19/20 19/20/21 43/45/21 
f 19/20/21 44/46/22 43/45/21 
f 19/20/21 20/21/23 44/46/22 
f 20/21/23 45/47/24 44/46/22 
f 20/21/23 21/22/24 45/47/24 
f 21/22/24 46/48/25 45/47/24 
f 21/22/24 22/23/25 46/48/25 
f 22/23/25 47/49/26 46/48/25 
f 22/23/25 23/24/26 47/49/26 
f 23/24/26 48/50/27 47/49/26 
f 23/24/26 24/25/27 48/50/27 
f 24/25/27 49/51/28 48/50/27 
f 24/25/27 25/26/28 49/51/28 
f 25/26/28 27/28/2 49/51/28 
f 25/26/28 3/3/2 27/28/2 
f 27/28/2 50/52/3 51/53/2 
f 27/28/2 26/27/3 50/52/3 
f 26/27/3 52/54/5 50/52/3 
f 26/27/3 28/29/5 52/54/5 
f 28/29/5 53/55/6 52/54/5 
f 28/29/5 29/30/6 53/55/6 
f 29/30/6 54/56/7 53/55/6 
f 29/30/6 30/31/7 54/56/7 
f 30/31/7 55/57/8 54/56/7 
f 30/31/7 31/32/8 55/57/8 
f 31/32/8 56/58/9 55/57/8 
f 31/32/8 32/33/9 56/58/9 
f 32/35/9 57/59/10 56/60/9 
f 32/35/9 33/34/10 57/59/10 
f 33/34/10 58/61/11 57/59/10 
f 33/34/10 34/36/11 58/61/11 
f 34/36/11 59/62/12 58/61/11 
f 34/36/11 35/37/12 59/62/12 
f 35/37/12 60/63/13 59/62/12 
f 35/37/12 36/38/13 60/63/13 
f 36/38/13 61/64/14 60/63/13 
f 36/38/13 37/39/14 61/64/14 
f 37/39/14 62/65/16 61/64/14 
f 37/39/14 38/40/15 62/65/16 
f 38/40/15 63/66/17 62/65/16 
f 38/40/15 39/41/17 63/66/17 
f 39/41/17 64/67/18 63/66/17 
f 39/41/17 40/42/18 64/67/18 
f 40/42/18 65/68/19 64/67/18 
f 40/42/18 41/43/19 65/68/19 
f 41/43/19 66/69/20 65/68/19 
f 41/43/19 42/44/20 66/69/20 
f 42/44/20 67/70/21 66/69/20 
f 42/44/20 43/45/21 67/70/21 
f 43/45/21 68/71/22 67/70/21 
f 43/45/21 44/46/22 68/71/22 
f 44/46/22 69/72/24 68/71/22 
f 44/46/22 45/47/24 69/72/24 
f 45/47/24 70/73/25 69/72/24 
f 45/47/24 46/48/25 70/73/25 
f 46/48/25 71/74/26 70/73/25 
f 46/48/25 47/49/26 71/74/26 
f 47/49/26 72/75/27 71/74/26 
f 47/49/26 48/50/27 72/75/27 
f 48/50/27 73/76/28 72/75/27 
f 48/50/27 49/51/28 73/76/28 
f 49/51/28 51/53/2 73/76/28 
f 49/51/28 27/28/2 51/53/2 
f 51/53/2 74/77/4 75/78/2 
f 51/53/2 50/52/3 74/77/4 
f 50/52/3 76/79/5 74/77/4 
f 50/52/3 52/54/5 76/79/5 
f 52/54/5 77/80/6 76/79/5 
f 52/54/5 53/55/6 77/80/6 
f 53/55/6 78/81/7 77/80/6 
f 53/55/6 54/56/7 78/81/7 
f 54/56/7 79/82/8 78/81/7 
f 54/56/7 55/57/8 79/82/8 
f 55/57/8 80/83/9 79/82/8 
f 55/57/8 56/58/9 80/83/9 
f 56/60/9 81/84/10 80/85/9 
f 56/60/9 57/59/10 81/84/10 
f 57/59/10 82/86/11 81/84/10 
f 57/59/10 58/61/11 82/86/11 
f 58/61/11 83/87/12 82/86/11 
f 58/61/11 59/62/12 83/87/12 
f 59/62/12 84/88/13 83/87/12 
f 59/62/12 60/63/13 84/88/13 
f 60/63/13 85/89/14 84/88/13 
f 60/63/13 61/64/14 85/89/14 
f 61/64/14 86/90/15 85/89/14 
f 61/64/14 62/65/16 86/90/15 
f 62/65/16 87/91/17 86/90/15 
f 62/65/16 63/66/17 87/91/17 
f 63/66/17 88/92/18 87/91/17 
f 63/66/17 64/67/18 88/92/18 
f 64/67/18 89/93/29 88/92/18 
f 64/67/18 65/68/19 89/93/29 
f 65/68/19 90/94/20 89/93/29 
f 65/68/19 66/69/20 90/94/20 
f 66/69/20 91/95/21 90/94/20 
f 66/69/20 67/70/21 91/95/21 
f 67/70/21 92/96/22 91/95/21 
f 67/70/21 68/71/22 92/96/22 
f 68/71/22 93/97/24 92/96/22 
f 68/71/22 69/72/24 93/97/24 
f 69/72/24 94/98/25 93/97/24 
f 69/72/24 70/73/25 94/98/25 
f 70/73/25 95/99/26 94/98/25 
f 70/73/25 71/74/26 95/99/26 
f 71/74/26 96/100/27 95/99/26 
f 71/74/26 72/75/27 96/100/27 
f 72/75/27 97/101/28 96/100/27 
f 72/75/27 73/76/28 97/101/28 
f 73/76/28 75/78/2 97/101/28 
f 73/76/28 51/53/2 75/78/2 
f 75/78/2 98/102/3 99/103/2 
f 75/78/2 74/77/4 98/102/3 
f 74/77/4 100/104/5 98/102/3 
f 74/77/4 76/79/5 100/104/5 
f 76/79/5 101/105/6 100/104/5 
f 76/79/5 77/80/6 101/105/6 
f 77/80/6 102/106/7 101/105/6 
f 77/80/6 78/81/7 102/106/7 
f 78/81/7 103/107/8 102/106/7 
f 78/81/7 79/82/8 103/107/8 
f 79/82/8 104/108/9 103/107/8 
f 79/82/8 80/83/9 104/108/9 
f 80/85/9 105/109/10 104/110/9 
f 80/85/9 81/84/10 105/109/10 
f 81/84/10 106/111/11 105/109/10 
f 81/84/10 82/86/11 106/111/11 
f 82/86/11 107/112/12 106/111/11 
f 82/86/11 83/87/12 107/112/12 
f 83/87/12 108/113/13 107/112/12 
f 83/87/12 84/88/13 108/113/13 
f 84/88/13 109/114/14 108/113/13 
f 84/88/13 85/89/14 109/114/14 
f 85/89/14 110/115/15 109/114/14 
f 85/89/14 86/90/15 110/115/15 
f 86/90/15 111/116/17 110/115/15 
f 86/90/15 87/91/17 111/116/17 
f 87/91/17 112/117/18 111/116/17 
f 87/91/17 88/92/18 112/117/18 
f 88/92/18 113/118/29 112/117/18 
f 88/92/18 89/93/29 113/118/29 
f 89/93/29 114/119/20 113/118/29 
f 89/93/29 90/94/20 114/119/20 
f 90/94/20 115/120/21 114/119/20 
f 90/94/20 91/95/21 115/120/21 
f 91/95/21 116/121/22 115/120/21 
f 91/95/21 92/96/22 116/121/22 
f 92/96/22 117/122/24 116/121/22 
f 92/96/22 93/97/24 117/122/24 
f 93/97/24 118/123/25 117/122/24 
f 93/97/24 94/98/25 118/123/25 
f 94/98/25 119/124/30 118/123/25 
f 94/98/25 95/99/26 119/124/30 
f 95/99/26 120/125/27 119/124/30 
f 95/99/26 96/100/27 120/125/27 
f 96/100/27 121/126/31 120/125/27 
f 96/100/27 97/101/28 121/126/31 
f 97/101/28 99/103/2 121/126/31 
f 97/101/28 75/78/2 99/103/2 
f 99/103/2 122/127/4 123/128/2 
f 99/103/2 98/102/3 122/127/4 
f 98/102/3 124/129/5 122/127/4 
f 98/102/3 100/104/5 124/129/5 
f 100/104/5 125/130/6 124/129/5 
f 100/104/5 101/105/6 125/130/6 
f 101/105/6 126/131/7 125/130/6 
f 101/105/6 102/106/7 126/131/7 
f 102/106/7 127/132/8 126/131/7 
f 102/106/7 103/107/8 127/132/8 
f 103/107/8 128/133/9 127/132/8 
f 103/107/8 104/108/9 128/133/9 
f 104/110/9 129/134/10 128/135/9 
f 104/110/9 105/109/10 129/134/10 
f 105/109/10 130/136/11 129/134/10 
f 105/109/10 106/111/11 130/136/11 
f 106/111/11 131/137/12 130/136/11 
f 106/111/11 107/112/12 131/137/12 
f 107/112/12 132/138/13 131/137/12 
f 107/112/12 108/113/13 132/138/13 
f 108/113/13 133/139/14 132/138/13 
f 108/113/13 109/114/14 133/139/14 
f 109/114/14 134/140/15 133/139/14 
f 109/114/14 110/115/15 134/140/15 
f 110/115/15 135/141/17 134/140/15 
f 110/115/15 111/116/17 135/141/17 
f 111/116/17 136/142/18 135/141/17 
f 111/116/17 112/117/18 136/142/18 
f 112/117/18 137/143/29 136/142/18 
f 112/117/18 113/118/29 137/143/29 
f 113/118/29 138/144/20 137/143/29 
f 113/118/29 114/119/20 138/144/20 
f 114/119/20 139/145/32 138/144/20 
f 114/119/20 115/120/21 139/145/32 
f 115/120/21 140/146/22 139/145/32 
f 115/120/21 116/121/22 140/146/22 
f 116/121/22 141/147/24 140/146/22 
f 116/121/22 117/122/24 141/147/24 
f 117/122/24 142/148/25 141/147/24 
f 117/122/24 118/123/25 142/148/25 
f 118/123/25 143/149/26 142/148/25 
f 118/123/25 119/124/30 143/149/26 
f 119/124/30 144/150/27 143/149/26 
f 119/124/30 120/125/27 144/150/27 
f 120/125/27 145/151/28 144/150/27 
f 120/125/27 121/126/31 145/151/28 
f 121/126/31 123/128/2 145/151/28 
f 121/126/31 99/103/2 123/128/2 
s 1
f 146/152/33 123/128/33 122/127/33 
f 146/152/33 122/127/33 124/129/33 
f 146/152/33 124/129/33 125/130/33 
f 146/152/33 125/130/33 126/131/33 
f 146/152/33 126/131/33 127/132/33 
f 146/152/33 127/132/33 128/133/33 
f 146/152/33 128/135/33 129/134/33 
f 146/152/33 129/134/33 130/136/33 
f 146/152/33 130/136/33 131/137/33 
f 146/152/33 131/137/33 132/138/33 
f 146/152/33 132/138/33 133/139/33 
f 146/152/33 133/139/33 134/140/33 
f 146/152/33 134/140/33 135/141/33 
f 146/152/33 135/141/33 136/142/33 
f 146/152/33 136/142/33 137/143/33 
f 146/152/33 137/143/33 138/144/33 
f 146/152/33 138/144/33 139/145/33 
f 146/152/33 139/145/33 140/146/33 
f 146/152/33 140/146/33 141/147/33 
f 146/152/33 141/147/33 142/148/33 
f 146/152/33 142/148/33 143/149/33 
f 146/152/33 143/149/33 144/150/33 
f 146/152/33 144/150/33 145/151/33 
f 146/152/33 145/151/33 123/128/33 
# 288 faces

