# 3ds Max Wavefront OBJ Exporter v0.97b - (c)2007 guruware
# File Created: 01.04.2013 01:33:38

mtllib L01.mtl

#
# object L01
#

v  57.998360 -51.777744 14.863873
v  57.998371 -50.325775 -22.651329
v  41.784752 -52.827236 -22.748150
v  41.784740 -54.279205 14.767052
v  336.155396 -434.374634 16.211790
v  321.724854 -461.241455 15.171946
v  321.724854 -458.540802 -54.606323
v  336.155396 -431.673981 -53.566475
v  52.498001 -109.795410 14.413460
v  69.885803 -105.248276 14.589455
v  68.872177 -163.997345 14.110733
v  87.169189 -157.141571 14.376083
v  90.750183 -216.308685 13.881186
v  109.650345 -206.915634 14.244734
v  117.916275 -266.171448 13.746403
v  137.076859 -254.052444 14.215454
v  150.098099 -313.051941 13.727049
v  169.144836 -298.063354 14.307167
v  186.969528 -356.446655 13.842606
v  205.502350 -338.494080 14.537439
v  228.153824 -395.887360 14.111204
v  245.753204 -374.929504 14.922350
v  273.227539 -430.946472 14.549379
v  289.461304 -406.997864 15.476276
v  52.498013 -108.204697 -26.686527
v  68.872185 -162.267883 -30.574039
v  90.750198 -214.440475 -34.388374
v  117.916290 -264.164490 -38.107937
v  150.098114 -310.906250 -41.712082
v  186.969543 -354.162231 -45.181305
v  228.153824 -393.464203 -48.497501
v  273.227539 -428.384552 -51.644104
v  69.885811 -103.657562 -26.510532
v  87.169197 -155.412109 -30.308689
v  109.650360 -205.047424 -34.024826
v  137.076874 -252.045502 -37.638885
v  169.144852 -295.917664 -41.131962
v  205.502365 -336.209656 -44.486473
v  245.753220 -372.506317 -47.686352
v  289.461304 -404.435944 -50.717205
# 40 vertices

vn -0.152589 0.987550 0.038222
vn 0.881114 -0.472551 -0.018289
vn -0.005505 -0.007241 0.999959
vn -0.004844 -0.007304 0.999962
vn -0.007836 -0.007528 0.999941
vn -0.008525 -0.007491 0.999936
vn -0.010959 -0.008504 0.999904
vn -0.011712 -0.008521 0.999895
vn -0.013965 -0.009792 0.999855
vn -0.014776 -0.009874 0.999842
vn -0.016822 -0.011380 0.999794
vn -0.017687 -0.011537 0.999777
vn -0.019500 -0.013250 0.999722
vn -0.020412 -0.013491 0.999701
vn -0.021972 -0.015383 0.999640
vn -0.022923 -0.015716 0.999614
vn -0.024212 -0.017755 0.999549
vn -0.025192 -0.018189 0.999517
vn -0.026196 -0.020343 0.999450
vn -0.027196 -0.020885 0.999412
vn -0.028196 -0.022378 0.999352
vn -0.029217 -0.022984 0.999309
vn -0.981867 -0.189429 -0.007332
vn -0.970581 -0.240595 -0.009312
vn -0.940750 -0.338849 -0.013115
vn -0.940749 -0.338849 -0.013115
vn -0.900985 -0.433525 -0.016779
vn -0.851708 -0.523625 -0.020266
vn -0.793439 -0.608195 -0.023540
vn -0.726792 -0.686344 -0.026564
vn -0.652471 -0.757247 -0.029308
vn -0.571262 -0.820154 -0.031743
vn -0.529211 -0.847855 -0.032815
vn -0.005629 0.070720 -0.997480
vn -0.005007 0.071062 -0.997459
vn -0.007919 0.070058 -0.997512
vn -0.008501 0.069681 -0.997533
vn -0.011082 0.069106 -0.997548
vn -0.011659 0.068618 -0.997575
vn -0.014135 0.067838 -0.997596
vn -0.014688 0.067234 -0.997629
vn -0.017046 0.066266 -0.997657
vn -0.017554 0.065545 -0.997695
vn -0.019785 0.064406 -0.997728
vn -0.020228 0.063570 -0.997772
vn -0.022322 0.062276 -0.997809
vn -0.022680 0.061331 -0.997860
vn -0.024633 0.059898 -0.997901
vn -0.024884 0.058852 -0.997957
vn -0.026692 0.057295 -0.998001
vn -0.026818 0.056161 -0.998062
vn -0.027636 0.054621 -0.998125
vn -0.027696 0.053509 -0.998183
vn 0.976142 0.216970 0.008398
vn 0.963410 0.267832 0.010366
vn 0.930817 0.365212 0.014135
vn 0.888396 0.458734 0.017755
vn 0.836594 0.547414 0.021187
vn 0.775958 0.630312 0.024396
vn 0.707129 0.706556 0.027346
vn 0.630832 0.775339 0.030009
vn 0.630833 0.775339 0.030009
vn 0.547875 0.835934 0.032354
vn 0.505107 0.862411 0.033379
# 64 vertex normals

vt 0.859412 0.036920 0.465768
vt 0.384339 0.034369 0.523170
vt 0.347852 0.034459 0.379921
vt 0.822926 0.037011 0.322519
vt 0.654941 0.945710 0.631821
vt 0.618454 0.945800 0.488572
vt 0.143381 0.943249 0.545974
vt 0.179868 0.943158 0.689223
vt 0.800206 0.137987 0.340969
vt 0.836693 0.137897 0.484218
vt 0.777487 0.238964 0.359419
vt 0.813974 0.238874 0.502668
vt 0.754768 0.339941 0.377870
vt 0.791255 0.339850 0.521119
vt 0.732049 0.440917 0.396320
vt 0.768536 0.440827 0.539569
vt 0.709330 0.541894 0.414771
vt 0.745817 0.541803 0.558020
vt 0.686611 0.642870 0.433221
vt 0.723098 0.642780 0.576470
vt 0.663892 0.743847 0.451671
vt 0.700379 0.743757 0.594921
vt 0.641173 0.844824 0.470122
vt 0.677660 0.844733 0.613371
vt 0.325133 0.135436 0.398371
vt 0.302414 0.236412 0.416822
vt 0.279695 0.337389 0.435272
vt 0.256976 0.438366 0.453722
vt 0.234257 0.539342 0.472173
vt 0.211538 0.640319 0.490623
vt 0.188819 0.741296 0.509074
vt 0.166100 0.842272 0.527524
vt 0.361620 0.135345 0.541620
vt 0.338901 0.236322 0.560071
vt 0.316182 0.337299 0.578521
vt 0.293463 0.438275 0.596971
vt 0.270744 0.539252 0.615422
vt 0.248025 0.640229 0.633872
vt 0.225306 0.741205 0.652323
vt 0.202587 0.842182 0.670773
# 40 texture coords

g L01
usemtl 17___Default
s 2
f 1/1/1 2/2/1 3/3/1 
f 3/3/1 4/4/1 1/1/1 
s 4
f 5/5/2 6/6/2 7/7/2 
f 7/7/2 8/8/2 5/5/2 
s 8
f 1/1/3 4/4/4 9/9/5 
f 9/9/5 10/10/6 1/1/3 
f 10/10/6 9/9/5 11/11/7 
f 11/11/7 12/12/8 10/10/6 
f 12/12/8 11/11/7 13/13/9 
f 13/13/9 14/14/10 12/12/8 
f 14/14/10 13/13/9 15/15/11 
f 15/15/11 16/16/12 14/14/10 
f 16/16/12 15/15/11 17/17/13 
f 17/17/13 18/18/14 16/16/12 
f 18/18/14 17/17/13 19/19/15 
f 19/19/15 20/20/16 18/18/14 
f 20/20/16 19/19/15 21/21/17 
f 21/21/17 22/22/18 20/20/16 
f 22/22/18 21/21/17 23/23/19 
f 23/23/19 24/24/20 22/22/18 
f 24/24/20 23/23/19 6/6/21 
f 6/6/21 5/5/22 24/24/20 
s 16
f 4/4/23 3/3/23 25/25/24 
f 25/25/24 9/9/24 4/4/23 
f 9/9/24 25/25/24 26/26/25 
f 26/26/25 11/11/26 9/9/24 
f 11/11/26 26/26/25 27/27/27 
f 27/27/27 13/13/27 11/11/26 
f 13/13/27 27/27/27 28/28/28 
f 28/28/28 15/15/28 13/13/27 
f 15/15/28 28/28/28 29/29/29 
f 29/29/29 17/17/29 15/15/28 
f 17/17/29 29/29/29 30/30/30 
f 30/30/30 19/19/30 17/17/29 
f 19/19/30 30/30/30 31/31/31 
f 31/31/31 21/21/31 19/19/30 
f 21/21/31 31/31/31 32/32/32 
f 32/32/32 23/23/32 21/21/31 
f 23/23/32 32/32/32 7/7/33 
f 7/7/33 6/6/33 23/23/32 
s 32
f 3/3/34 2/2/35 33/33/36 
f 33/33/36 25/25/37 3/3/34 
f 25/25/37 33/33/36 34/34/38 
f 34/34/38 26/26/39 25/25/37 
f 26/26/39 34/34/38 35/35/40 
f 35/35/40 27/27/41 26/26/39 
f 27/27/41 35/35/40 36/36/42 
f 36/36/42 28/28/43 27/27/41 
f 28/28/43 36/36/42 37/37/44 
f 37/37/44 29/29/45 28/28/43 
f 29/29/45 37/37/44 38/38/46 
f 38/38/46 30/30/47 29/29/45 
f 30/30/47 38/38/46 39/39/48 
f 39/39/48 31/31/49 30/30/47 
f 31/31/49 39/39/48 40/40/50 
f 40/40/50 32/32/51 31/31/49 
f 32/32/51 40/40/50 8/8/52 
f 8/8/52 7/7/53 32/32/51 
s 64
f 2/2/54 1/1/54 10/10/55 
f 10/10/55 33/33/55 2/2/54 
f 33/33/55 10/10/55 12/12/56 
f 12/12/56 34/34/56 33/33/55 
f 34/34/56 12/12/56 14/14/57 
f 14/14/57 35/35/57 34/34/56 
f 35/35/57 14/14/57 16/16/58 
f 16/16/58 36/36/58 35/35/57 
f 36/36/58 16/16/58 18/18/59 
f 18/18/59 37/37/59 36/36/58 
f 37/37/59 18/18/59 20/20/60 
f 20/20/60 38/38/60 37/37/59 
f 38/38/60 20/20/60 22/22/61 
f 22/22/61 39/39/62 38/38/60 
f 39/39/62 22/22/61 24/24/63 
f 24/24/63 40/40/63 39/39/62 
f 40/40/63 24/24/63 5/5/64 
f 5/5/64 8/8/64 40/40/63 
# 76 faces

