# 3ds Max Wavefront OBJ Exporter v0.97b - (c)2007 guruware
# File Created: 01.04.2013 01:33:27

#mtllib L02.mtl

#
# object L02
#

v  23.619747 -53.203426 48.993870
v  47.734047 -51.751453 20.255554
v  35.160679 -51.401554 9.722927
v  11.046379 -52.853527 38.461243
v  231.787521 -604.873047 216.884583
v  217.920441 -628.827637 204.038452
v  262.773041 -626.126953 150.585175
v  276.640137 -602.172363 163.431305
v  12.771988 -125.498138 38.582222
v  26.458435 -124.037193 50.140320
v  20.197380 -197.696014 43.508450
v  34.824440 -194.119247 55.962715
v  33.244514 -268.683716 53.213032
v  48.604801 -262.712891 66.403503
v  51.775742 -337.708801 67.618454
v  67.629715 -329.098633 81.356537
v  75.595116 -404.038055 86.597366
v  91.674393 -392.582092 100.668289
v  104.450340 -466.965088 109.973755
v  120.461655 -452.501007 124.139626
v  138.035339 -525.817871 137.524719
v  153.664886 -508.232178 151.527969
v  175.993286 -579.966064 168.982758
v  190.911575 -559.198120 182.549973
v  39.190544 -123.907425 7.097797
v  48.920189 -195.966553 9.277924
v  64.271584 -266.815491 16.236395
v  85.107056 -335.701874 27.895718
v  111.230690 -401.892365 44.128525
v  142.390167 -464.680634 64.758804
v  178.279419 -523.394653 89.563675
v  218.541611 -577.404175 118.275604
v  52.876991 -122.446472 18.655899
v  63.547249 -192.389801 21.732191
v  79.631866 -260.844666 29.426868
v  100.961029 -327.091675 41.633793
v  127.309967 -390.436401 58.199448
v  158.401489 -450.216553 78.924675
v  193.908966 -505.809021 103.566910
v  233.459915 -556.636230 131.842819
# 40 vertices

vn -0.008504 0.999024 0.043339
vn 0.617192 -0.618261 0.486649
vn -0.642620 -0.013901 0.766059
vn -0.642321 -0.013982 0.766309
vn -0.644137 -0.013807 0.764786
vn -0.644449 -0.013741 0.764524
vn -0.646062 -0.014133 0.763154
vn -0.646404 -0.014097 0.762865
vn -0.647945 -0.014714 0.761545
vn -0.648316 -0.014716 0.761230
vn -0.649766 -0.015545 0.759975
vn -0.650162 -0.015590 0.759636
vn -0.651506 -0.016617 0.758462
vn -0.651924 -0.016711 0.758100
vn -0.653146 -0.017919 0.757020
vn -0.653583 -0.018068 0.756639
vn -0.654669 -0.019436 0.755666
vn -0.655121 -0.019645 0.755269
vn -0.656060 -0.021152 0.754412
vn -0.656521 -0.021426 0.754003
vn -0.657398 -0.022552 0.753206
vn -0.657867 -0.022864 0.752787
vn -0.765423 -0.019253 -0.643239
vn -0.762314 -0.071359 -0.643262
vn -0.750132 -0.173254 -0.638189
vn -0.730032 -0.273320 -0.626378
vn -0.702224 -0.370501 -0.607955
vn -0.667004 -0.463771 -0.583114
vn -0.624742 -0.552145 -0.552117
vn -0.575885 -0.634690 -0.515292
vn -0.520948 -0.710534 -0.473026
vn -0.491850 -0.745157 -0.450360
vn 0.641575 0.063875 -0.764396
vn 0.641885 0.063986 -0.764127
vn 0.640056 0.063666 -0.765686
vn 0.639761 0.063530 -0.765944
vn 0.638116 0.063354 -0.767330
vn 0.637812 0.063155 -0.767598
vn 0.636216 0.062785 -0.768952
vn 0.635911 0.062518 -0.769226
vn 0.634375 0.061966 -0.770538
vn 0.634079 0.061627 -0.770809
vn 0.632613 0.060903 -0.772070
vn 0.632334 0.060490 -0.772331
vn 0.630949 0.059607 -0.773531
vn 0.630695 0.059121 -0.773776
vn 0.629399 0.058093 -0.774908
vn 0.629180 0.057534 -0.775127
vn 0.627979 0.056375 -0.776186
vn 0.627805 0.055747 -0.776372
vn 0.627126 0.054443 -0.777013
vn 0.626983 0.053820 -0.777172
vn 0.764377 0.041047 0.643462
vn 0.760395 0.093110 0.642752
vn 0.746517 0.194709 0.636239
vn 0.724758 0.294252 0.623011
vn 0.695347 0.390689 0.603204
vn 0.658595 0.483001 0.577030
vn 0.614890 0.570214 0.544763
vn 0.564693 0.651407 0.506745
vn 0.508535 0.725722 0.463378
vn 0.478904 0.759510 0.440222
# 62 vertex normals

vt 0.870188 0.188590 0.504061
vt 0.395177 0.186903 0.561681
vt 0.358705 0.187201 0.418485
vt 0.833716 0.188888 0.360864
vt 0.579113 0.976593 0.621234
vt 0.542641 0.976892 0.478038
vt 0.067630 0.975205 0.535658
vt 0.104102 0.974906 0.678854
vt 0.801375 0.276444 0.373884
vt 0.837847 0.276146 0.517080
vt 0.769033 0.364000 0.386903
vt 0.805505 0.363701 0.530099
vt 0.736691 0.451556 0.399922
vt 0.773163 0.451257 0.543118
vt 0.704350 0.539112 0.412941
vt 0.740822 0.538813 0.556138
vt 0.672008 0.626668 0.425961
vt 0.708480 0.626369 0.569157
vt 0.639666 0.714224 0.438980
vt 0.676138 0.713925 0.582176
vt 0.607325 0.801780 0.451999
vt 0.643797 0.801481 0.595195
vt 0.574983 0.889336 0.465018
vt 0.611455 0.889037 0.608215
vt 0.326363 0.274757 0.431504
vt 0.294021 0.362313 0.444523
vt 0.261680 0.449869 0.457543
vt 0.229338 0.537425 0.470562
vt 0.196996 0.624981 0.483581
vt 0.164655 0.712537 0.496600
vt 0.132313 0.800093 0.509620
vt 0.099971 0.887649 0.522639
vt 0.362835 0.274459 0.574700
vt 0.330493 0.362014 0.587720
vt 0.298152 0.449570 0.600739
vt 0.265810 0.537126 0.613758
vt 0.233468 0.624682 0.626777
vt 0.201127 0.712238 0.639797
vt 0.168785 0.799794 0.652816
vt 0.136443 0.887350 0.665835
# 40 texture coords

g L02
usemtl 17___Default
s 2
f 1/1/1 2/2/1 3/3/1 
f 3/3/1 4/4/1 1/1/1 
s 4
f 5/5/2 6/6/2 7/7/2 
f 7/7/2 8/8/2 5/5/2 
s 8
f 1/1/3 4/4/4 9/9/5 
f 9/9/5 10/10/6 1/1/3 
f 10/10/6 9/9/5 11/11/7 
f 11/11/7 12/12/8 10/10/6 
f 12/12/8 11/11/7 13/13/9 
f 13/13/9 14/14/10 12/12/8 
f 14/14/10 13/13/9 15/15/11 
f 15/15/11 16/16/12 14/14/10 
f 16/16/12 15/15/11 17/17/13 
f 17/17/13 18/18/14 16/16/12 
f 18/18/14 17/17/13 19/19/15 
f 19/19/15 20/20/16 18/18/14 
f 20/20/16 19/19/15 21/21/17 
f 21/21/17 22/22/18 20/20/16 
f 22/22/18 21/21/17 23/23/19 
f 23/23/19 24/24/20 22/22/18 
f 24/24/20 23/23/19 6/6/21 
f 6/6/21 5/5/22 24/24/20 
s 16
f 4/4/23 3/3/23 25/25/24 
f 25/25/24 9/9/24 4/4/23 
f 9/9/24 25/25/24 26/26/25 
f 26/26/25 11/11/25 9/9/24 
f 11/11/25 26/26/25 27/27/26 
f 27/27/26 13/13/26 11/11/25 
f 13/13/26 27/27/26 28/28/27 
f 28/28/27 15/15/27 13/13/26 
f 15/15/27 28/28/27 29/29/28 
f 29/29/28 17/17/28 15/15/27 
f 17/17/28 29/29/28 30/30/29 
f 30/30/29 19/19/29 17/17/28 
f 19/19/29 30/30/29 31/31/30 
f 31/31/30 21/21/30 19/19/29 
f 21/21/30 31/31/30 32/32/31 
f 32/32/31 23/23/31 21/21/30 
f 23/23/31 32/32/31 7/7/32 
f 7/7/32 6/6/32 23/23/31 
s 32
f 3/3/33 2/2/34 33/33/35 
f 33/33/35 25/25/36 3/3/33 
f 25/25/36 33/33/35 34/34/37 
f 34/34/37 26/26/38 25/25/36 
f 26/26/38 34/34/37 35/35/39 
f 35/35/39 27/27/40 26/26/38 
f 27/27/40 35/35/39 36/36/41 
f 36/36/41 28/28/42 27/27/40 
f 28/28/42 36/36/41 37/37/43 
f 37/37/43 29/29/44 28/28/42 
f 29/29/44 37/37/43 38/38/45 
f 38/38/45 30/30/46 29/29/44 
f 30/30/46 38/38/45 39/39/47 
f 39/39/47 31/31/48 30/30/46 
f 31/31/48 39/39/47 40/40/49 
f 40/40/49 32/32/50 31/31/48 
f 32/32/50 40/40/49 8/8/51 
f 8/8/51 7/7/52 32/32/50 
s 64
f 2/2/53 1/1/53 10/10/54 
f 10/10/54 33/33/54 2/2/53 
f 33/33/54 10/10/54 12/12/55 
f 12/12/55 34/34/55 33/33/54 
f 34/34/55 12/12/55 14/14/56 
f 14/14/56 35/35/56 34/34/55 
f 35/35/56 14/14/56 16/16/57 
f 16/16/57 36/36/57 35/35/56 
f 36/36/57 16/16/57 18/18/58 
f 18/18/58 37/37/58 36/36/57 
f 37/37/58 18/18/58 20/20/59 
f 20/20/59 38/38/59 37/37/58 
f 38/38/59 20/20/59 22/22/60 
f 22/22/60 39/39/60 38/38/59 
f 39/39/60 22/22/60 24/24/61 
f 24/24/61 40/40/61 39/39/60 
f 40/40/61 24/24/61 5/5/62 
f 5/5/62 8/8/62 40/40/61 
# 76 faces

