# 3ds Max Wavefront OBJ Exporter v0.97b - (c)2007 guruware
# File Created: 01.04.2013 01:39:47

mtllib sF01.mtl

#
# object sF01
#

v  -17.458969 -94.999496 192.791260
v  -42.027931 255.994949 486.284180
v  -42.129486 256.316345 485.891296
v  -17.560524 -94.678101 192.398392
v  -17.117609 -95.234772 193.101196
v  -41.686573 255.759674 486.594116
v  -16.627914 -95.320892 193.245178
v  -41.196877 255.673553 486.738098
v  -16.121094 -95.234772 193.184616
v  -40.690060 255.759674 486.677551
v  -15.732955 -94.999496 192.935745
v  -40.301918 255.994949 486.428650
v  -15.567495 -94.678101 192.565231
v  -40.136459 256.316345 486.058167
v  -15.669051 -94.356705 192.172363
v  -40.238014 256.637756 485.665283
v  -16.010410 -94.121429 191.862427
v  -40.579376 256.873016 485.355347
v  -16.500105 -94.035309 191.718445
v  -41.069069 256.959137 485.211365
v  -17.006924 -94.121429 191.779007
v  -41.575890 256.873016 485.271912
v  -17.395065 -94.356705 192.027878
v  -41.964027 256.637756 485.520813
# 24 vertices

vn -0.894956 -0.321397 0.309447
vn -0.894957 -0.321396 0.309446
vn -0.996514 -0.000000 -0.083420
vn -0.996514 0.000000 -0.083421
vn -0.553594 -0.556673 0.619394
vn -0.553597 -0.556672 0.619393
vn -0.063903 -0.642788 0.763374
vn -0.063904 -0.642788 0.763374
vn 0.442910 -0.556672 0.702813
vn 0.442912 -0.556672 0.702813
vn 0.831052 -0.321397 0.453935
vn 0.831053 -0.321396 0.453934
vn 0.996514 0.000000 0.083420
vn 0.996514 -0.000000 0.083421
vn 0.894957 0.321396 -0.309446
vn 0.894956 0.321397 -0.309447
vn 0.553597 0.556672 -0.619393
vn 0.553594 0.556673 -0.619394
vn 0.063904 0.642788 -0.763374
vn 0.063903 0.642788 -0.763374
vn -0.442912 0.556672 -0.702813
vn -0.442910 0.556672 -0.702813
vn -0.831053 0.321396 -0.453934
vn -0.831052 0.321397 -0.453935
vn -0.053628 0.766043 0.640548
vn -0.053641 0.766048 0.640541
vn -0.053621 0.766042 0.640550
vn -0.053620 0.766038 0.640555
vn -0.053618 0.766036 0.640557
vn -0.053620 0.766042 0.640550
vn -0.053621 0.766046 0.640546
vn -0.053623 0.766042 0.640550
vn -0.053625 0.766037 0.640556
vn -0.053623 0.766038 0.640554
vn -0.053614 0.766044 0.640549
vn -0.053593 0.766051 0.640542
vn 0.053614 -0.766044 -0.640549
vn 0.053593 -0.766051 -0.640542
vn 0.053621 -0.766042 -0.640550
vn 0.053623 -0.766038 -0.640554
vn 0.053628 -0.766043 -0.640548
vn 0.053620 -0.766038 -0.640555
vn 0.053618 -0.766036 -0.640557
vn 0.053620 -0.766042 -0.640550
vn 0.053621 -0.766045 -0.640546
vn 0.053623 -0.766042 -0.640550
vn 0.053625 -0.766037 -0.640556
vn 0.053641 -0.766048 -0.640541
# 48 vertex normals

g sF01
usemtl 05___Default
s 1
f 1//1 2//2 3//3 
f 3//3 4//4 1//1 
f 5//5 6//6 2//2 
f 2//2 1//1 5//5 
f 7//7 8//8 6//6 
f 6//6 5//5 7//7 
f 9//9 10//10 8//8 
f 8//8 7//7 9//9 
f 11//11 12//12 10//10 
f 10//10 9//9 11//11 
f 13//13 14//14 12//12 
f 12//12 11//11 13//13 
f 15//15 16//16 14//14 
f 14//14 13//13 15//15 
f 17//17 18//18 16//16 
f 16//16 15//15 17//17 
f 19//19 20//20 18//18 
f 18//18 17//17 19//19 
f 21//21 22//22 20//20 
f 20//20 19//19 21//21 
f 23//23 24//24 22//22 
f 22//22 21//21 23//23 
f 4//4 3//3 24//24 
f 24//24 23//23 4//4 
s 2
f 22//25 24//26 3//27 
f 20//28 22//25 3//27 
f 18//29 20//28 3//27 
f 16//30 18//29 3//27 
f 14//31 16//30 3//27 
f 12//32 14//31 3//27 
f 10//33 12//32 3//27 
f 8//34 10//33 3//27 
f 6//35 8//34 3//27 
f 2//36 6//35 3//27 
f 5//37 1//38 4//39 
f 7//40 5//37 4//39 
f 4//39 21//41 19//42 
f 4//39 19//42 17//43 
f 4//39 17//43 15//44 
f 4//39 15//44 13//45 
f 4//39 13//45 11//46 
f 4//39 11//46 9//47 
f 7//40 4//39 9//47 
f 23//48 21//41 4//39 
# 44 faces

