# 3ds Max Wavefront OBJ Exporter v0.97b - (c)2007 guruware
# File Created: 01.04.2013 01:40:17

#mtllib sF02.mtl

#
# object sF02
#

v  -78.276627 -247.350510 236.526459
v  -349.671814 259.702881 1071.787109
v  -349.721954 260.135864 1071.507935
v  -78.326782 -246.917496 236.247284
v  -77.985077 -247.667496 236.813599
v  -349.380249 259.385864 1072.074219
v  -77.530243 -247.783524 237.031830
v  -348.925415 259.269836 1072.292480
v  -77.034012 -247.667496 237.122620
v  -348.429199 259.385864 1072.383301
v  -76.629349 -247.350510 237.061676
v  -348.024536 259.702881 1072.322266
v  -76.424683 -246.917496 236.865326
v  -347.819855 260.135864 1072.125977
v  -76.474838 -246.484482 236.586151
v  -347.869995 260.568909 1071.846802
v  -76.766403 -246.167496 236.299011
v  -348.161560 260.885864 1071.559570
v  -77.221222 -246.051468 236.080780
v  -348.616394 261.001892 1071.341431
v  -77.717453 -246.167496 235.989990
v  -349.112610 260.885864 1071.250610
v  -78.122116 -246.484482 236.050934
v  -349.517273 260.568909 1071.311523
# 24 vertices

vn -0.900895 -0.433009 -0.029859
vn -0.900896 -0.433008 -0.029860
vn -0.951055 0.000004 -0.309022
vn -0.609340 -0.749999 0.257306
vn -0.609342 -0.749998 0.257305
vn -0.154506 -0.866026 0.475528
vn -0.154506 -0.866026 0.475527
vn 0.341726 -0.749997 0.566328
vn 0.341723 -0.749999 0.566328
vn 0.746382 -0.433016 0.505383
vn 0.746384 -0.433012 0.505382
vn 0.951055 -0.000004 0.309022
vn 0.900892 0.433016 0.029854
vn 0.900891 0.433019 0.029852
vn 0.609338 0.750000 -0.257307
vn 0.609336 0.750001 -0.257309
vn 0.154511 0.866026 -0.475526
vn 0.154512 0.866026 -0.475526
vn -0.341724 0.749999 -0.566328
vn -0.341726 0.749997 -0.566328
vn -0.746384 0.433012 -0.505382
vn -0.746382 0.433016 -0.505383
vn -0.267599 0.499972 0.823662
vn -0.267598 0.499971 0.823663
vn -0.267608 0.499993 0.823646
vn -0.267628 0.500004 0.823633
vn -0.267619 0.499976 0.823653
vn -0.267616 0.499994 0.823643
vn -0.267622 0.499997 0.823639
vn -0.267623 0.499984 0.823647
vn -0.267614 0.499999 0.823641
vn -0.267611 0.500005 0.823638
vn -0.267630 0.499987 0.823643
vn -0.267524 0.500038 0.823646
vn 0.267630 -0.499987 -0.823643
vn 0.267524 -0.500038 -0.823646
vn 0.267608 -0.499993 -0.823646
vn 0.267611 -0.500006 -0.823638
vn 0.267599 -0.499972 -0.823662
vn 0.267628 -0.500004 -0.823633
vn 0.267619 -0.499976 -0.823653
vn 0.267616 -0.499994 -0.823643
vn 0.267622 -0.499997 -0.823639
vn 0.267623 -0.499984 -0.823647
vn 0.267614 -0.499999 -0.823641
vn 0.267598 -0.499971 -0.823663
# 46 vertex normals

g sF02
usemtl 05___Default
s 1
f 1//1 2//2 3//3 
f 3//3 4//3 1//1 
f 5//4 6//5 2//2 
f 2//2 1//1 5//4 
f 7//6 8//7 6//5 
f 6//5 5//4 7//6 
f 9//8 10//9 8//7 
f 8//7 7//6 9//8 
f 11//10 12//11 10//9 
f 10//9 9//8 11//10 
f 13//12 14//12 12//11 
f 12//11 11//10 13//12 
f 15//13 16//14 14//12 
f 14//12 13//12 15//13 
f 17//15 18//16 16//14 
f 16//14 15//13 17//15 
f 19//17 20//18 18//16 
f 18//16 17//15 19//17 
f 21//19 22//20 20//18 
f 20//18 19//17 21//19 
f 23//21 24//22 22//20 
f 22//20 21//19 23//21 
f 4//3 3//3 24//22 
f 24//22 23//21 4//3 
s 2
f 22//23 24//24 3//25 
f 20//26 22//23 3//25 
f 18//27 20//26 3//25 
f 16//28 18//27 3//25 
f 14//29 16//28 3//25 
f 12//30 14//29 3//25 
f 10//31 12//30 3//25 
f 8//32 10//31 3//25 
f 6//33 8//32 3//25 
f 2//34 6//33 3//25 
f 5//35 1//36 4//37 
f 7//38 5//35 4//37 
f 4//37 21//39 19//40 
f 4//37 19//40 17//41 
f 4//37 17//41 15//42 
f 4//37 15//42 13//43 
f 4//37 13//43 11//44 
f 4//37 11//44 9//45 
f 7//38 4//37 9//45 
f 23//46 21//39 4//37 
# 44 faces

