# 3ds Max Wavefront OBJ Exporter v0.97b - (c)2007 guruware
# File Created: 01.04.2013 01:40:00

#mtllib sF06.mtl

#
# object sF06
#

v  -670.314270 259.752747 -216.479584
v  -190.182755 -163.853470 -60.471985
v  -189.918488 -163.470444 -60.245247
v  -670.050049 260.135742 -216.252838
v  -670.424927 259.472351 -216.900391
v  -190.293396 -164.133865 -60.892799
v  -670.352295 259.369690 -217.402527
v  -190.220795 -164.236496 -61.394936
v  -670.115906 259.472351 -217.851440
v  -189.984375 -164.133865 -61.843857
v  -669.779053 259.752747 -218.126862
v  -189.647507 -163.853470 -62.119263
v  -669.432007 260.135742 -218.154953
v  -189.300446 -163.470444 -62.147362
v  -669.167725 260.518799 -217.928223
v  -189.036179 -163.087418 -61.920624
v  -669.057068 260.799194 -217.507401
v  -188.925537 -162.807022 -61.499809
v  -669.129639 260.901794 -217.005264
v  -188.998138 -162.704391 -60.997673
v  -669.366089 260.799194 -216.556335
v  -189.234558 -162.807022 -60.548752
v  -669.702942 260.518799 -216.280945
v  -189.571426 -163.087418 -60.273346
# 24 vertices

vn -0.573283 -0.383026 0.724319
vn -0.573283 -0.383026 0.724318
vn -0.309023 0.000000 0.951055
vn -0.309024 -0.000001 0.951054
vn -0.683931 -0.663417 0.303507
vn -0.611323 -0.766049 -0.198630
vn -0.374908 -0.663418 -0.647550
vn -0.374908 -0.663417 -0.647551
vn -0.038037 -0.383023 -0.922955
vn -0.038038 -0.383024 -0.922955
vn 0.309023 -0.000000 -0.951055
vn 0.309024 0.000001 -0.951054
vn 0.573283 0.383026 -0.724318
vn 0.573283 0.383026 -0.724319
vn 0.683931 0.663417 -0.303507
vn 0.611323 0.766049 0.198630
vn 0.374908 0.663417 0.647551
vn 0.374908 0.663418 0.647550
vn 0.038038 0.383024 0.922955
vn 0.038037 0.383023 0.922955
vn 0.728557 -0.642775 0.236737
vn 0.728557 -0.642781 0.236722
vn 0.728553 -0.642783 0.236729
vn 0.728553 -0.642787 0.236720
vn 0.728559 -0.642777 0.236728
vn 0.728554 -0.642783 0.236727
vn 0.728552 -0.642785 0.236724
vn 0.728557 -0.642780 0.236725
vn 0.728554 -0.642782 0.236726
vn 0.728551 -0.642787 0.236727
vn 0.728561 -0.642777 0.236719
vn 0.728529 -0.642799 0.236761
vn -0.728561 0.642777 -0.236719
vn -0.728529 0.642799 -0.236761
vn -0.728553 0.642783 -0.236729
vn -0.728551 0.642787 -0.236727
vn -0.728557 0.642775 -0.236737
vn -0.728553 0.642787 -0.236720
vn -0.728559 0.642777 -0.236728
vn -0.728554 0.642783 -0.236727
vn -0.728553 0.642785 -0.236724
vn -0.728557 0.642780 -0.236725
vn -0.728554 0.642782 -0.236726
vn -0.728557 0.642781 -0.236722
# 44 vertex normals

g sF06
#usemtl 05___Default
s 1
f 1//1 2//2 3//3 
f 3//3 4//4 1//1 
f 5//5 6//5 2//2 
f 2//2 1//1 5//5 
f 7//6 8//6 6//5 
f 6//5 5//5 7//6 
f 9//7 10//8 8//6 
f 8//6 7//6 9//7 
f 11//9 12//10 10//8 
f 10//8 9//7 11//9 
f 13//11 14//12 12//10 
f 12//10 11//9 13//11 
f 15//13 16//14 14//12 
f 14//12 13//11 15//13 
f 17//15 18//15 16//14 
f 16//14 15//13 17//15 
f 19//16 20//16 18//15 
f 18//15 17//15 19//16 
f 21//17 22//18 20//16 
f 20//16 19//16 21//17 
f 23//19 24//20 22//18 
f 22//18 21//17 23//19 
f 4//4 3//3 24//20 
f 24//20 23//19 4//4 
s 2
f 22//21 24//22 3//23 
f 20//24 22//21 3//23 
f 18//25 20//24 3//23 
f 16//26 18//25 3//23 
f 14//27 16//26 3//23 
f 12//28 14//27 3//23 
f 10//29 12//28 3//23 
f 8//30 10//29 3//23 
f 6//31 8//30 3//23 
f 2//32 6//31 3//23 
f 5//33 1//34 4//35 
f 7//36 5//33 4//35 
f 4//35 21//37 19//38 
f 4//35 19//38 17//39 
f 4//35 17//39 15//40 
f 4//35 15//40 13//41 
f 4//35 13//41 11//42 
f 4//35 11//42 9//43 
f 7//36 4//35 9//43 
f 23//44 21//37 4//35 
# 44 faces

