# 3ds Max Wavefront OBJ Exporter v0.97b - (c)2007 guruware
# File Created: 01.04.2013 01:41:39

#mtllib sF09.mtl

#
# object sF09
#

v  -88.018372 259.752869 -704.685608
v  -25.735090 -169.159164 -197.338516
v  -25.828905 -168.776138 -197.003204
v  -88.112183 260.135925 -704.350281
v  -87.683739 259.472504 -704.963745
v  -25.400461 -169.439545 -197.616638
v  -87.197960 259.369873 -705.110107
v  -24.914680 -169.542175 -197.763046
v  -86.691193 259.472504 -705.085571
v  -24.407911 -169.439545 -197.738495
v  -86.299225 259.752869 -704.896667
v  -24.015945 -169.159164 -197.549576
v  -86.127090 260.135925 -704.593994
v  -23.843807 -168.776138 -197.246887
v  -86.220901 260.518921 -704.258667
v  -23.937622 -168.393112 -196.911575
v  -86.555534 260.799316 -703.980530
v  -24.272253 -168.112732 -196.633453
v  -87.041313 260.901947 -703.834106
v  -24.758034 -168.010101 -196.487045
v  -87.548080 260.799316 -703.858643
v  -25.264803 -168.112732 -196.511597
v  -87.940048 260.518921 -704.047607
v  -25.656769 -168.393112 -196.700516
# 24 vertices

vn -0.898731 -0.383025 -0.213480
vn -0.898731 -0.383026 -0.213480
vn -0.992549 -0.000005 0.121844
vn -0.992549 -0.000002 0.121846
vn -0.564100 -0.663415 -0.491601
vn -0.564105 -0.663413 -0.491599
vn -0.078327 -0.766043 -0.637999
vn -0.078329 -0.766043 -0.637999
vn 0.428437 -0.663417 -0.613449
vn 0.428438 -0.663416 -0.613449
vn 0.820409 -0.383025 -0.424525
vn 0.820410 -0.383024 -0.424524
vn 0.992549 0.000005 -0.121844
vn 0.992549 0.000002 -0.121846
vn 0.898731 0.383026 0.213480
vn 0.898731 0.383025 0.213480
vn 0.564105 0.663412 0.491599
vn 0.564100 0.663415 0.491601
vn 0.078329 0.766043 0.637999
vn 0.078327 0.766043 0.637999
vn -0.428438 0.663416 0.613449
vn -0.428437 0.663417 0.613449
vn -0.820410 0.383024 0.424524
vn -0.820409 0.383025 0.424525
vn 0.093344 -0.642800 0.760325
vn 0.093348 -0.642802 0.760324
vn 0.093349 -0.642789 0.760334
vn 0.093346 -0.642802 0.760324
vn 0.093345 -0.642799 0.760326
vn 0.093340 -0.642782 0.760341
vn 0.093336 -0.642785 0.760339
vn 0.093336 -0.642797 0.760329
vn 0.093339 -0.642792 0.760333
vn 0.093345 -0.642786 0.760337
vn 0.093363 -0.642774 0.760345
vn 0.093400 -0.642759 0.760354
vn -0.093363 0.642774 -0.760345
vn -0.093399 0.642759 -0.760354
vn -0.093349 0.642789 -0.760334
vn -0.093345 0.642786 -0.760337
vn -0.093344 0.642800 -0.760325
vn -0.093346 0.642802 -0.760323
vn -0.093345 0.642800 -0.760326
vn -0.093340 0.642782 -0.760341
vn -0.093336 0.642785 -0.760339
vn -0.093336 0.642797 -0.760329
vn -0.093339 0.642792 -0.760333
vn -0.093349 0.642802 -0.760323
# 48 vertex normals

g sF09
#usemtl 05___Default
s 1
f 1//1 2//2 3//3 
f 3//3 4//4 1//1 
f 5//5 6//6 2//2 
f 2//2 1//1 5//5 
f 7//7 8//8 6//6 
f 6//6 5//5 7//7 
f 9//9 10//10 8//8 
f 8//8 7//7 9//9 
f 11//11 12//12 10//10 
f 10//10 9//9 11//11 
f 13//13 14//14 12//12 
f 12//12 11//11 13//13 
f 15//15 16//16 14//14 
f 14//14 13//13 15//15 
f 17//17 18//18 16//16 
f 16//16 15//15 17//17 
f 19//19 20//20 18//18 
f 18//18 17//17 19//19 
f 21//21 22//22 20//20 
f 20//20 19//19 21//21 
f 23//23 24//24 22//22 
f 22//22 21//21 23//23 
f 4//4 3//3 24//24 
f 24//24 23//23 4//4 
s 2
f 22//25 24//26 3//27 
f 20//28 22//25 3//27 
f 18//29 20//28 3//27 
f 16//30 18//29 3//27 
f 14//31 16//30 3//27 
f 12//32 14//31 3//27 
f 10//33 12//32 3//27 
f 8//34 10//33 3//27 
f 6//35 8//34 3//27 
f 2//36 6//35 3//27 
f 5//37 1//38 4//39 
f 7//40 5//37 4//39 
f 4//39 21//41 19//42 
f 4//39 19//42 17//43 
f 4//39 17//43 15//44 
f 4//39 15//44 13//45 
f 4//39 13//45 11//46 
f 4//39 11//46 9//47 
f 7//40 4//39 9//47 
f 23//48 21//41 4//39 
# 44 faces

