# 3ds Max Wavefront OBJ Exporter v0.97b - (c)2007 guruware
# File Created: 01.04.2013 01:41:00

#mtllib sF10.mtl

#
# object sF10
#

v  255.754852 255.935349 -802.602905
v  73.748108 -248.603546 -237.195404
v  73.521393 -248.222473 -236.928345
v  255.528137 256.316406 -802.335876
v  256.175873 255.656372 -802.716309
v  74.169136 -248.882523 -237.308807
v  256.678406 255.554260 -802.645691
v  74.671661 -248.984634 -237.238159
v  257.127777 255.656372 -802.409912
v  75.121033 -248.882523 -237.002411
v  257.403595 255.935349 -802.072205
v  75.396843 -248.603546 -236.664673
v  257.431946 256.316406 -801.723022
v  75.425186 -248.222473 -236.315491
v  257.205200 256.697510 -801.455933
v  75.198471 -247.841400 -236.048431
v  256.784180 256.976471 -801.342529
v  74.777443 -247.562424 -235.935028
v  256.281677 257.078583 -801.413208
v  74.274918 -247.460312 -236.005676
v  255.832291 256.976471 -801.648926
v  73.825546 -247.562424 -236.241425
v  255.556488 256.697510 -801.986694
v  73.549736 -247.841400 -236.579163
# 24 vertices

vn -0.725179 -0.381079 -0.573492
vn -0.725176 -0.381082 -0.573494
vn -0.951896 -0.000003 -0.306422
vn -0.304156 -0.660046 -0.686898
vn -0.304154 -0.660047 -0.686898
vn 0.198365 -0.762157 -0.616253
vn 0.198360 -0.762157 -0.616255
vn 0.647743 -0.660048 -0.380480
vn 0.647741 -0.660049 -0.380482
vn 0.923554 -0.381077 -0.042757
vn 0.923556 -0.381074 -0.042753
vn 0.951896 0.000003 0.306422
vn 0.725176 0.381082 0.573494
vn 0.725179 0.381080 0.573492
vn 0.304154 0.660047 0.686898
vn 0.304156 0.660046 0.686898
vn -0.198360 0.762157 0.616255
vn -0.198365 0.762157 0.616253
vn -0.647741 0.660049 0.380482
vn -0.647743 0.660048 0.380480
vn -0.923556 0.381074 0.042753
vn -0.923554 0.381077 0.042757
vn -0.233491 -0.647424 0.725482
vn -0.233546 -0.647401 0.725485
vn -0.233537 -0.647391 0.725497
vn -0.233531 -0.647395 0.725495
vn -0.233546 -0.647384 0.725500
vn -0.233548 -0.647383 0.725500
vn -0.233545 -0.647392 0.725493
vn -0.233543 -0.647402 0.725485
vn -0.233537 -0.647390 0.725497
vn -0.233527 -0.647365 0.725523
vn -0.233543 -0.647380 0.725504
vn -0.233549 -0.647384 0.725499
vn 0.233543 0.647380 -0.725504
vn 0.233549 0.647384 -0.725499
vn 0.233537 0.647391 -0.725497
vn 0.233527 0.647365 -0.725523
vn 0.233491 0.647424 -0.725482
vn 0.233531 0.647395 -0.725495
vn 0.233546 0.647384 -0.725500
vn 0.233548 0.647383 -0.725500
vn 0.233545 0.647392 -0.725493
vn 0.233543 0.647402 -0.725485
vn 0.233537 0.647390 -0.725497
vn 0.233546 0.647401 -0.725485
# 46 vertex normals

g sF10
#usemtl 05___Default
s 1
f 1//1 2//2 3//3 
f 3//3 4//3 1//1 
f 5//4 6//5 2//2 
f 2//2 1//1 5//4 
f 7//6 8//7 6//5 
f 6//5 5//4 7//6 
f 9//8 10//9 8//7 
f 8//7 7//6 9//8 
f 11//10 12//11 10//9 
f 10//9 9//8 11//10 
f 13//12 14//12 12//11 
f 12//11 11//10 13//12 
f 15//13 16//14 14//12 
f 14//12 13//12 15//13 
f 17//15 18//16 16//14 
f 16//14 15//13 17//15 
f 19//17 20//18 18//16 
f 18//16 17//15 19//17 
f 21//19 22//20 20//18 
f 20//18 19//17 21//19 
f 23//21 24//22 22//20 
f 22//20 21//19 23//21 
f 4//3 3//3 24//22 
f 24//22 23//21 4//3 
s 2
f 22//23 24//24 3//25 
f 20//26 22//23 3//25 
f 18//27 20//26 3//25 
f 16//28 18//27 3//25 
f 14//29 16//28 3//25 
f 12//30 14//29 3//25 
f 10//31 12//30 3//25 
f 8//32 10//31 3//25 
f 6//33 8//32 3//25 
f 2//34 6//33 3//25 
f 5//35 1//36 4//37 
f 7//38 5//35 4//37 
f 4//37 21//39 19//40 
f 4//37 19//40 17//41 
f 4//37 17//41 15//42 
f 4//37 15//42 13//43 
f 4//37 13//43 11//44 
f 4//37 11//44 9//45 
f 7//38 4//37 9//45 
f 23//46 21//39 4//37 
# 44 faces

