# 3ds Max Wavefront OBJ Exporter v0.97b - (c)2007 guruware
# File Created: 01.04.2013 01:41:11

#mtllib sF12.mtl

#
# object sF12
#

v  630.613647 259.752808 -322.480957
v  176.430435 -167.967163 -91.063583
v  176.083252 -167.584137 -91.037048
v  630.266479 260.135834 -322.454437
v  630.989502 259.472412 -322.261658
v  176.806244 -168.247559 -90.844269
v  631.293213 259.369781 -321.855255
v  177.109970 -168.350189 -90.437859
v  631.443481 259.472412 -321.370667
v  177.260239 -168.247559 -89.953262
v  631.400024 259.752808 -320.937714
v  177.216782 -167.967163 -89.520317
v  631.174438 260.135834 -320.672424
v  176.991241 -167.584137 -89.255035
v  630.827271 260.518860 -320.645874
v  176.644058 -167.201111 -89.228500
v  630.451477 260.799255 -320.865204
v  176.268250 -166.920715 -89.447815
v  630.147766 260.901886 -321.271606
v  175.964523 -166.818085 -89.854225
v  629.997498 260.799255 -321.756226
v  175.814255 -166.920715 -90.338821
v  630.040955 260.518860 -322.189148
v  175.857712 -167.201111 -90.771767
# 24 vertices

vn -0.106808 -0.383020 -0.917544
vn -0.453989 -0.000001 -0.891007
vn -0.453990 0.000000 -0.891007
vn 0.268997 -0.663415 -0.698227
vn 0.572724 -0.766047 -0.291818
vn 0.572724 -0.766047 -0.291820
vn 0.722989 -0.663418 0.192779
vn 0.722989 -0.663419 0.192777
vn 0.679529 -0.383024 0.625726
vn 0.679530 -0.383025 0.625725
vn 0.453989 0.000001 0.891007
vn 0.453990 -0.000000 0.891007
vn 0.106808 0.383020 0.917544
vn -0.268997 0.663415 0.698227
vn -0.572724 0.766047 0.291820
vn -0.572725 0.766047 0.291818
vn -0.722989 0.663419 -0.192777
vn -0.722989 0.663418 -0.192779
vn -0.679530 0.383025 -0.625725
vn -0.679529 0.383024 -0.625726
vn -0.682550 -0.642784 0.347785
vn -0.682548 -0.642785 0.347786
vn -0.682553 -0.642781 0.347784
vn -0.682556 -0.642780 0.347781
vn -0.682552 -0.642784 0.347782
vn -0.682554 -0.642781 0.347783
vn -0.682555 -0.642781 0.347782
vn -0.682553 -0.642782 0.347782
vn -0.682554 -0.642780 0.347784
vn -0.682555 -0.642780 0.347783
vn -0.682554 -0.642783 0.347779
vn -0.682551 -0.642774 0.347800
vn 0.682554 0.642783 -0.347779
vn 0.682551 0.642774 -0.347801
vn 0.682553 0.642781 -0.347784
vn 0.682555 0.642780 -0.347783
vn 0.682550 0.642784 -0.347785
vn 0.682556 0.642780 -0.347781
vn 0.682552 0.642784 -0.347782
vn 0.682554 0.642781 -0.347783
vn 0.682555 0.642781 -0.347782
vn 0.682553 0.642782 -0.347782
vn 0.682554 0.642780 -0.347784
vn 0.682548 0.642785 -0.347786
# 44 vertex normals

g sF12
#usemtl 05___Default
s 1
f 1//1 2//1 3//2 
f 3//2 4//3 1//1 
f 5//4 6//4 2//1 
f 2//1 1//1 5//4 
f 7//5 8//6 6//4 
f 6//4 5//4 7//5 
f 9//7 10//8 8//6 
f 8//6 7//5 9//7 
f 11//9 12//10 10//8 
f 10//8 9//7 11//9 
f 13//11 14//12 12//10 
f 12//10 11//9 13//11 
f 15//13 16//13 14//12 
f 14//12 13//11 15//13 
f 17//14 18//14 16//13 
f 16//13 15//13 17//14 
f 19//15 20//16 18//14 
f 18//14 17//14 19//15 
f 21//17 22//18 20//16 
f 20//16 19//15 21//17 
f 23//19 24//20 22//18 
f 22//18 21//17 23//19 
f 4//3 3//2 24//20 
f 24//20 23//19 4//3 
s 2
f 22//21 24//22 3//23 
f 20//24 22//21 3//23 
f 18//25 20//24 3//23 
f 16//26 18//25 3//23 
f 14//27 16//26 3//23 
f 12//28 14//27 3//23 
f 10//29 12//28 3//23 
f 8//30 10//29 3//23 
f 6//31 8//30 3//23 
f 2//32 6//31 3//23 
f 5//33 1//34 4//35 
f 7//36 5//33 4//35 
f 4//35 21//37 19//38 
f 4//35 19//38 17//39 
f 4//35 17//39 15//40 
f 4//35 15//40 13//41 
f 4//35 13//41 11//42 
f 4//35 11//42 9//43 
f 7//36 4//35 9//43 
f 23//44 21//37 4//35 
# 44 faces

